; NON-PLATED HOLES START AT T1
; THROUGH (PLATED) HOLES START AT T100
M48
INCH
T1C0.086614
T100C0.035000
T101C0.040000
%
T1
X014833Y001174
X001841Y009835
X001841Y001174
X014833Y009835
T100
X006904Y006292
X006904Y004292
X009904Y005292
X009904Y003292
X006904Y005292
X009904Y006292
X006904Y003292
X009904Y004292
T101
X004596Y008654
X012077Y004914
X004596Y004520
X004596Y007276
X012077Y003536
X004596Y005898
X004596Y003142
X012077Y006292
T00
M30
