G04 MADE WITH FRITZING*
G04 WWW.FRITZING.ORG*
G04 DOUBLE SIDED*
G04 HOLES PLATED*
G04 CONTOUR ON CENTER OF CONTOUR VECTOR*
%ASAXBY*%
%FSLAX23Y23*%
%MOIN*%
%OFA0B0*%
%SFA1.0B1.0*%
%ADD10C,0.085000*%
%ADD11C,0.092000*%
%ADD12C,0.096000*%
%ADD13C,0.090000*%
%ADD14C,0.096614*%
%ADD15R,0.092000X0.092000*%
%ADD16R,0.090000X0.090000*%
%LNMASK1*%
G90*
G70*
G54D10*
X193Y788D03*
X593Y788D03*
X722Y788D03*
X1122Y788D03*
X1295Y788D03*
X1695Y788D03*
X1846Y788D03*
X2246Y788D03*
G54D11*
X495Y473D03*
X197Y473D03*
X1024Y473D03*
X726Y473D03*
X2149Y488D03*
X1851Y488D03*
X1598Y488D03*
X1300Y488D03*
G54D12*
X945Y1536D03*
X945Y1036D03*
X745Y1158D03*
X394Y1536D03*
X394Y1036D03*
X193Y1158D03*
X1497Y1536D03*
X1497Y1036D03*
X1296Y1158D03*
X2048Y1536D03*
X2048Y1036D03*
X1847Y1158D03*
G54D13*
X1549Y116D03*
X1399Y116D03*
X1249Y116D03*
X1099Y116D03*
X949Y116D03*
G54D14*
X2363Y1457D03*
X79Y1457D03*
X79Y79D03*
X2363Y77D03*
G54D15*
X496Y473D03*
X1025Y473D03*
X2150Y488D03*
X1599Y488D03*
G54D16*
X1549Y116D03*
G04 End of Mask1*
M02*