G04 MADE WITH FRITZING*
G04 WWW.FRITZING.ORG*
G04 DOUBLE SIDED*
G04 HOLES PLATED*
G04 CONTOUR ON CENTER OF CONTOUR VECTOR*
%ASAXBY*%
%FSLAX23Y23*%
%MOIN*%
%OFA0B0*%
%SFA1.0B1.0*%
%ADD10C,0.075000*%
%ADD11C,0.082000*%
%ADD12C,0.080000*%
%ADD13R,0.082000X0.082000*%
%ADD14R,0.080000X0.080000*%
%ADD15C,0.024000*%
%ADD16R,0.001000X0.001000*%
%LNCOPPER0*%
G90*
G70*
G54D10*
X328Y820D03*
X728Y820D03*
X1217Y820D03*
X1617Y820D03*
X2088Y820D03*
X2488Y820D03*
X2966Y805D03*
X3366Y805D03*
G54D11*
X631Y505D03*
X333Y505D03*
X1519Y505D03*
X1221Y505D03*
X3269Y505D03*
X2971Y505D03*
X2403Y505D03*
X2105Y505D03*
G54D12*
X1989Y111D03*
X1851Y111D03*
X1714Y111D03*
X1576Y111D03*
X1438Y111D03*
G54D13*
X632Y505D03*
X1520Y505D03*
X3270Y505D03*
X2404Y505D03*
G54D14*
X1989Y111D03*
G54D15*
X2875Y310D02*
X2957Y476D01*
D02*
X2205Y310D02*
X2875Y310D01*
D02*
X2119Y476D02*
X2205Y310D01*
D02*
X2967Y776D02*
X2970Y537D01*
D02*
X2089Y791D02*
X2103Y537D01*
D02*
X1221Y537D02*
X1217Y791D01*
D02*
X332Y537D02*
X329Y791D01*
D02*
X2008Y939D02*
X2072Y843D01*
D02*
X1301Y939D02*
X2008Y939D01*
D02*
X1233Y843D02*
X1301Y939D01*
D02*
X433Y939D02*
X1103Y939D01*
D02*
X1103Y939D02*
X1197Y840D01*
D02*
X365Y832D02*
X433Y939D01*
D02*
X356Y829D02*
X365Y832D01*
D02*
X356Y1527D02*
X244Y1667D01*
D02*
X330Y848D02*
X356Y1527D01*
D02*
X199Y1724D02*
X990Y1725D01*
D02*
X247Y1669D02*
X199Y1724D01*
D02*
X1138Y1725D02*
X1856Y1725D01*
D02*
X2004Y1725D02*
X2722Y1725D01*
D02*
X2096Y474D02*
X1998Y141D01*
G54D16*
X189Y1804D02*
X206Y1804D01*
X1055Y1804D02*
X1072Y1804D01*
X1921Y1804D02*
X1938Y1804D01*
X2787Y1804D02*
X2804Y1804D01*
X182Y1803D02*
X212Y1803D01*
X1048Y1803D02*
X1078Y1803D01*
X1914Y1803D02*
X1944Y1803D01*
X2780Y1803D02*
X2810Y1803D01*
X178Y1802D02*
X216Y1802D01*
X1044Y1802D02*
X1082Y1802D01*
X1910Y1802D02*
X1948Y1802D01*
X2776Y1802D02*
X2814Y1802D01*
X174Y1801D02*
X220Y1801D01*
X1040Y1801D02*
X1086Y1801D01*
X1906Y1801D02*
X1952Y1801D01*
X2772Y1801D02*
X2818Y1801D01*
X172Y1800D02*
X223Y1800D01*
X1038Y1800D02*
X1089Y1800D01*
X1903Y1800D02*
X1955Y1800D01*
X2769Y1800D02*
X2821Y1800D01*
X169Y1799D02*
X226Y1799D01*
X1035Y1799D02*
X1092Y1799D01*
X1901Y1799D02*
X1958Y1799D01*
X2767Y1799D02*
X2824Y1799D01*
X166Y1798D02*
X228Y1798D01*
X1032Y1798D02*
X1094Y1798D01*
X1898Y1798D02*
X1960Y1798D01*
X2764Y1798D02*
X2826Y1798D01*
X164Y1797D02*
X230Y1797D01*
X1030Y1797D02*
X1096Y1797D01*
X1896Y1797D02*
X1962Y1797D01*
X2762Y1797D02*
X2828Y1797D01*
X162Y1796D02*
X232Y1796D01*
X1028Y1796D02*
X1098Y1796D01*
X1894Y1796D02*
X1964Y1796D01*
X2760Y1796D02*
X2830Y1796D01*
X160Y1795D02*
X234Y1795D01*
X1026Y1795D02*
X1100Y1795D01*
X1892Y1795D02*
X1966Y1795D01*
X2758Y1795D02*
X2832Y1795D01*
X159Y1794D02*
X236Y1794D01*
X1025Y1794D02*
X1102Y1794D01*
X1890Y1794D02*
X1968Y1794D01*
X2756Y1794D02*
X2834Y1794D01*
X157Y1793D02*
X238Y1793D01*
X1023Y1793D02*
X1104Y1793D01*
X1889Y1793D02*
X1970Y1793D01*
X2755Y1793D02*
X2836Y1793D01*
X155Y1792D02*
X239Y1792D01*
X1021Y1792D02*
X1105Y1792D01*
X1887Y1792D02*
X1971Y1792D01*
X2753Y1792D02*
X2837Y1792D01*
X154Y1791D02*
X241Y1791D01*
X1020Y1791D02*
X1107Y1791D01*
X1886Y1791D02*
X1973Y1791D01*
X2752Y1791D02*
X2839Y1791D01*
X152Y1790D02*
X242Y1790D01*
X1018Y1790D02*
X1108Y1790D01*
X1884Y1790D02*
X1974Y1790D01*
X2750Y1790D02*
X2840Y1790D01*
X151Y1789D02*
X244Y1789D01*
X1017Y1789D02*
X1110Y1789D01*
X1883Y1789D02*
X1976Y1789D01*
X2749Y1789D02*
X2841Y1789D01*
X150Y1788D02*
X245Y1788D01*
X1016Y1788D02*
X1111Y1788D01*
X1882Y1788D02*
X1977Y1788D01*
X2748Y1788D02*
X2843Y1788D01*
X148Y1787D02*
X246Y1787D01*
X1014Y1787D02*
X1112Y1787D01*
X1880Y1787D02*
X1978Y1787D01*
X2746Y1787D02*
X2844Y1787D01*
X147Y1786D02*
X248Y1786D01*
X1013Y1786D02*
X1113Y1786D01*
X1879Y1786D02*
X1979Y1786D01*
X2745Y1786D02*
X2845Y1786D01*
X146Y1785D02*
X249Y1785D01*
X1012Y1785D02*
X1115Y1785D01*
X1878Y1785D02*
X1981Y1785D01*
X2744Y1785D02*
X2847Y1785D01*
X145Y1784D02*
X250Y1784D01*
X1011Y1784D02*
X1116Y1784D01*
X1877Y1784D02*
X1982Y1784D01*
X2743Y1784D02*
X2848Y1784D01*
X144Y1783D02*
X251Y1783D01*
X1010Y1783D02*
X1117Y1783D01*
X1876Y1783D02*
X1983Y1783D01*
X2742Y1783D02*
X2849Y1783D01*
X143Y1782D02*
X252Y1782D01*
X1009Y1782D02*
X1118Y1782D01*
X1875Y1782D02*
X1984Y1782D01*
X2741Y1782D02*
X2850Y1782D01*
X142Y1781D02*
X253Y1781D01*
X1008Y1781D02*
X1119Y1781D01*
X1874Y1781D02*
X1985Y1781D01*
X2740Y1781D02*
X2851Y1781D01*
X141Y1780D02*
X254Y1780D01*
X1007Y1780D02*
X1120Y1780D01*
X1873Y1780D02*
X1986Y1780D01*
X2739Y1780D02*
X2852Y1780D01*
X140Y1779D02*
X255Y1779D01*
X1006Y1779D02*
X1121Y1779D01*
X1872Y1779D02*
X1987Y1779D01*
X2738Y1779D02*
X2853Y1779D01*
X139Y1778D02*
X256Y1778D01*
X1005Y1778D02*
X1122Y1778D01*
X1871Y1778D02*
X1988Y1778D01*
X2737Y1778D02*
X2854Y1778D01*
X138Y1777D02*
X257Y1777D01*
X1004Y1777D02*
X1123Y1777D01*
X1870Y1777D02*
X1988Y1777D01*
X2736Y1777D02*
X2854Y1777D01*
X137Y1776D02*
X257Y1776D01*
X1003Y1776D02*
X1123Y1776D01*
X1869Y1776D02*
X1989Y1776D01*
X2735Y1776D02*
X2855Y1776D01*
X136Y1775D02*
X258Y1775D01*
X1002Y1775D02*
X1124Y1775D01*
X1868Y1775D02*
X1990Y1775D01*
X2734Y1775D02*
X2856Y1775D01*
X136Y1774D02*
X259Y1774D01*
X1002Y1774D02*
X1125Y1774D01*
X1868Y1774D02*
X1991Y1774D01*
X2734Y1774D02*
X2857Y1774D01*
X135Y1773D02*
X260Y1773D01*
X1001Y1773D02*
X1126Y1773D01*
X1867Y1773D02*
X1992Y1773D01*
X2733Y1773D02*
X2858Y1773D01*
X134Y1772D02*
X188Y1772D01*
X206Y1772D02*
X260Y1772D01*
X1000Y1772D02*
X1054Y1772D01*
X1072Y1772D02*
X1126Y1772D01*
X1866Y1772D02*
X1920Y1772D01*
X1938Y1772D02*
X1992Y1772D01*
X2732Y1772D02*
X2786Y1772D01*
X2804Y1772D02*
X2858Y1772D01*
X133Y1771D02*
X184Y1771D01*
X211Y1771D02*
X261Y1771D01*
X999Y1771D02*
X1050Y1771D01*
X1077Y1771D02*
X1127Y1771D01*
X1865Y1771D02*
X1916Y1771D01*
X1942Y1771D02*
X1993Y1771D01*
X2731Y1771D02*
X2782Y1771D01*
X2808Y1771D02*
X2859Y1771D01*
X133Y1770D02*
X181Y1770D01*
X214Y1770D02*
X262Y1770D01*
X999Y1770D02*
X1047Y1770D01*
X1079Y1770D02*
X1128Y1770D01*
X1865Y1770D02*
X1913Y1770D01*
X1945Y1770D02*
X1994Y1770D01*
X2731Y1770D02*
X2779Y1770D01*
X2811Y1770D02*
X2860Y1770D01*
X132Y1769D02*
X178Y1769D01*
X216Y1769D02*
X263Y1769D01*
X998Y1769D02*
X1044Y1769D01*
X1082Y1769D02*
X1129Y1769D01*
X1864Y1769D02*
X1910Y1769D01*
X1948Y1769D02*
X1994Y1769D01*
X2730Y1769D02*
X2776Y1769D01*
X2814Y1769D02*
X2860Y1769D01*
X131Y1768D02*
X176Y1768D01*
X218Y1768D02*
X263Y1768D01*
X997Y1768D02*
X1042Y1768D01*
X1084Y1768D02*
X1129Y1768D01*
X1863Y1768D02*
X1908Y1768D01*
X1950Y1768D02*
X1995Y1768D01*
X2729Y1768D02*
X2774Y1768D01*
X2816Y1768D02*
X2861Y1768D01*
X131Y1767D02*
X174Y1767D01*
X220Y1767D02*
X264Y1767D01*
X997Y1767D02*
X1040Y1767D01*
X1086Y1767D02*
X1130Y1767D01*
X1863Y1767D02*
X1906Y1767D01*
X1952Y1767D02*
X1996Y1767D01*
X2729Y1767D02*
X2772Y1767D01*
X2818Y1767D02*
X2862Y1767D01*
X130Y1766D02*
X173Y1766D01*
X222Y1766D02*
X264Y1766D01*
X996Y1766D02*
X1039Y1766D01*
X1088Y1766D02*
X1130Y1766D01*
X1862Y1766D02*
X1904Y1766D01*
X1954Y1766D02*
X1996Y1766D01*
X2728Y1766D02*
X2770Y1766D01*
X2820Y1766D02*
X2862Y1766D01*
X130Y1765D02*
X171Y1765D01*
X224Y1765D02*
X265Y1765D01*
X996Y1765D02*
X1037Y1765D01*
X1090Y1765D02*
X1131Y1765D01*
X1862Y1765D02*
X1903Y1765D01*
X1956Y1765D02*
X1997Y1765D01*
X2727Y1765D02*
X2769Y1765D01*
X2822Y1765D02*
X2863Y1765D01*
X129Y1764D02*
X170Y1764D01*
X225Y1764D02*
X266Y1764D01*
X995Y1764D02*
X1035Y1764D01*
X1091Y1764D02*
X1132Y1764D01*
X1861Y1764D02*
X1901Y1764D01*
X1957Y1764D02*
X1998Y1764D01*
X2727Y1764D02*
X2767Y1764D01*
X2823Y1764D02*
X2863Y1764D01*
X128Y1763D02*
X168Y1763D01*
X226Y1763D02*
X266Y1763D01*
X994Y1763D02*
X1034Y1763D01*
X1092Y1763D02*
X1132Y1763D01*
X1860Y1763D02*
X1900Y1763D01*
X1958Y1763D02*
X1998Y1763D01*
X2726Y1763D02*
X2766Y1763D01*
X2824Y1763D02*
X2864Y1763D01*
X128Y1762D02*
X167Y1762D01*
X228Y1762D02*
X267Y1762D01*
X994Y1762D02*
X1033Y1762D01*
X1094Y1762D02*
X1133Y1762D01*
X1860Y1762D02*
X1899Y1762D01*
X1960Y1762D02*
X1999Y1762D01*
X2726Y1762D02*
X2765Y1762D01*
X2826Y1762D02*
X2865Y1762D01*
X127Y1761D02*
X166Y1761D01*
X229Y1761D02*
X267Y1761D01*
X993Y1761D02*
X1032Y1761D01*
X1095Y1761D02*
X1133Y1761D01*
X1859Y1761D02*
X1898Y1761D01*
X1961Y1761D02*
X1999Y1761D01*
X2725Y1761D02*
X2764Y1761D01*
X2827Y1761D02*
X2865Y1761D01*
X127Y1760D02*
X165Y1760D01*
X230Y1760D02*
X268Y1760D01*
X993Y1760D02*
X1031Y1760D01*
X1096Y1760D02*
X1134Y1760D01*
X1859Y1760D02*
X1897Y1760D01*
X1962Y1760D02*
X2000Y1760D01*
X2725Y1760D02*
X2763Y1760D01*
X2828Y1760D02*
X2866Y1760D01*
X126Y1759D02*
X164Y1759D01*
X231Y1759D02*
X268Y1759D01*
X992Y1759D02*
X1030Y1759D01*
X1097Y1759D02*
X1134Y1759D01*
X1858Y1759D02*
X1896Y1759D01*
X1963Y1759D02*
X2000Y1759D01*
X2724Y1759D02*
X2762Y1759D01*
X2829Y1759D02*
X2866Y1759D01*
X126Y1758D02*
X163Y1758D01*
X232Y1758D02*
X269Y1758D01*
X992Y1758D02*
X1029Y1758D01*
X1098Y1758D02*
X1135Y1758D01*
X1858Y1758D02*
X1895Y1758D01*
X1964Y1758D02*
X2001Y1758D01*
X2724Y1758D02*
X2761Y1758D01*
X2830Y1758D02*
X2866Y1758D01*
X125Y1757D02*
X162Y1757D01*
X233Y1757D02*
X269Y1757D01*
X991Y1757D02*
X1028Y1757D01*
X1099Y1757D02*
X1135Y1757D01*
X1857Y1757D02*
X1894Y1757D01*
X1965Y1757D02*
X2001Y1757D01*
X2723Y1757D02*
X2760Y1757D01*
X2831Y1757D02*
X2867Y1757D01*
X125Y1756D02*
X161Y1756D01*
X234Y1756D02*
X270Y1756D01*
X991Y1756D02*
X1027Y1756D01*
X1100Y1756D02*
X1135Y1756D01*
X1857Y1756D02*
X1893Y1756D01*
X1966Y1756D02*
X2001Y1756D01*
X2723Y1756D02*
X2759Y1756D01*
X2832Y1756D02*
X2867Y1756D01*
X125Y1755D02*
X160Y1755D01*
X235Y1755D02*
X270Y1755D01*
X991Y1755D02*
X1026Y1755D01*
X1100Y1755D02*
X1136Y1755D01*
X1857Y1755D02*
X1892Y1755D01*
X1966Y1755D02*
X2002Y1755D01*
X2723Y1755D02*
X2758Y1755D01*
X2832Y1755D02*
X2868Y1755D01*
X124Y1754D02*
X159Y1754D01*
X235Y1754D02*
X270Y1754D01*
X990Y1754D02*
X1025Y1754D01*
X1101Y1754D02*
X1136Y1754D01*
X1856Y1754D02*
X1891Y1754D01*
X1967Y1754D02*
X2002Y1754D01*
X2722Y1754D02*
X2757Y1754D01*
X2833Y1754D02*
X2868Y1754D01*
X124Y1753D02*
X159Y1753D01*
X236Y1753D02*
X271Y1753D01*
X990Y1753D02*
X1025Y1753D01*
X1102Y1753D02*
X1137Y1753D01*
X1856Y1753D02*
X1890Y1753D01*
X1968Y1753D02*
X2003Y1753D01*
X2722Y1753D02*
X2756Y1753D01*
X2834Y1753D02*
X2868Y1753D01*
X124Y1752D02*
X158Y1752D01*
X237Y1752D02*
X271Y1752D01*
X990Y1752D02*
X1024Y1752D01*
X1103Y1752D02*
X1137Y1752D01*
X1856Y1752D02*
X1890Y1752D01*
X1969Y1752D02*
X2003Y1752D01*
X2721Y1752D02*
X2756Y1752D01*
X2835Y1752D02*
X2869Y1752D01*
X123Y1751D02*
X157Y1751D01*
X237Y1751D02*
X271Y1751D01*
X989Y1751D02*
X1023Y1751D01*
X1103Y1751D02*
X1137Y1751D01*
X1855Y1751D02*
X1889Y1751D01*
X1969Y1751D02*
X2003Y1751D01*
X2721Y1751D02*
X2755Y1751D01*
X2835Y1751D02*
X2869Y1751D01*
X123Y1750D02*
X157Y1750D01*
X238Y1750D02*
X272Y1750D01*
X989Y1750D02*
X1023Y1750D01*
X1104Y1750D02*
X1138Y1750D01*
X1855Y1750D02*
X1889Y1750D01*
X1970Y1750D02*
X2004Y1750D01*
X2721Y1750D02*
X2754Y1750D01*
X2836Y1750D02*
X2870Y1750D01*
X123Y1749D02*
X156Y1749D01*
X239Y1749D02*
X272Y1749D01*
X989Y1749D02*
X1022Y1749D01*
X1105Y1749D02*
X1138Y1749D01*
X1855Y1749D02*
X1888Y1749D01*
X1970Y1749D02*
X2004Y1749D01*
X2720Y1749D02*
X2754Y1749D01*
X2836Y1749D02*
X2870Y1749D01*
X122Y1748D02*
X155Y1748D01*
X239Y1748D02*
X272Y1748D01*
X988Y1748D02*
X1021Y1748D01*
X1105Y1748D02*
X1138Y1748D01*
X1854Y1748D02*
X1887Y1748D01*
X1971Y1748D02*
X2004Y1748D01*
X2720Y1748D02*
X2753Y1748D01*
X2837Y1748D02*
X2870Y1748D01*
X122Y1747D02*
X155Y1747D01*
X240Y1747D02*
X273Y1747D01*
X988Y1747D02*
X1021Y1747D01*
X1106Y1747D02*
X1138Y1747D01*
X1854Y1747D02*
X1887Y1747D01*
X1972Y1747D02*
X2004Y1747D01*
X2720Y1747D02*
X2753Y1747D01*
X2837Y1747D02*
X2870Y1747D01*
X122Y1746D02*
X155Y1746D01*
X240Y1746D02*
X273Y1746D01*
X988Y1746D02*
X1020Y1746D01*
X1106Y1746D02*
X1139Y1746D01*
X1854Y1746D02*
X1886Y1746D01*
X1972Y1746D02*
X2005Y1746D01*
X2720Y1746D02*
X2752Y1746D01*
X2838Y1746D02*
X2871Y1746D01*
X122Y1745D02*
X154Y1745D01*
X241Y1745D02*
X273Y1745D01*
X988Y1745D02*
X1020Y1745D01*
X1107Y1745D02*
X1139Y1745D01*
X1853Y1745D02*
X1886Y1745D01*
X1972Y1745D02*
X2005Y1745D01*
X2719Y1745D02*
X2752Y1745D01*
X2838Y1745D02*
X2871Y1745D01*
X121Y1744D02*
X154Y1744D01*
X241Y1744D02*
X273Y1744D01*
X987Y1744D02*
X1020Y1744D01*
X1107Y1744D02*
X1139Y1744D01*
X1853Y1744D02*
X1885Y1744D01*
X1973Y1744D02*
X2005Y1744D01*
X2719Y1744D02*
X2751Y1744D01*
X2839Y1744D02*
X2871Y1744D01*
X121Y1743D02*
X153Y1743D01*
X241Y1743D02*
X274Y1743D01*
X987Y1743D02*
X1019Y1743D01*
X1107Y1743D02*
X1139Y1743D01*
X1853Y1743D02*
X1885Y1743D01*
X1973Y1743D02*
X2005Y1743D01*
X2719Y1743D02*
X2751Y1743D01*
X2839Y1743D02*
X2871Y1743D01*
X121Y1742D02*
X153Y1742D01*
X242Y1742D02*
X274Y1742D01*
X987Y1742D02*
X1019Y1742D01*
X1108Y1742D02*
X1140Y1742D01*
X1853Y1742D02*
X1885Y1742D01*
X1974Y1742D02*
X2006Y1742D01*
X2719Y1742D02*
X2751Y1742D01*
X2840Y1742D02*
X2872Y1742D01*
X121Y1741D02*
X152Y1741D01*
X242Y1741D02*
X274Y1741D01*
X987Y1741D02*
X1018Y1741D01*
X1108Y1741D02*
X1140Y1741D01*
X1853Y1741D02*
X1884Y1741D01*
X1974Y1741D02*
X2006Y1741D01*
X2719Y1741D02*
X2750Y1741D01*
X2840Y1741D02*
X2872Y1741D01*
X120Y1740D02*
X152Y1740D01*
X243Y1740D02*
X274Y1740D01*
X986Y1740D02*
X1018Y1740D01*
X1108Y1740D02*
X1140Y1740D01*
X1852Y1740D02*
X1884Y1740D01*
X1974Y1740D02*
X2006Y1740D01*
X2718Y1740D02*
X2750Y1740D01*
X2840Y1740D02*
X2872Y1740D01*
X120Y1739D02*
X152Y1739D01*
X243Y1739D02*
X274Y1739D01*
X986Y1739D02*
X1018Y1739D01*
X1109Y1739D02*
X1140Y1739D01*
X1852Y1739D02*
X1884Y1739D01*
X1975Y1739D02*
X2006Y1739D01*
X2718Y1739D02*
X2750Y1739D01*
X2841Y1739D02*
X2872Y1739D01*
X120Y1738D02*
X152Y1738D01*
X243Y1738D02*
X274Y1738D01*
X986Y1738D02*
X1017Y1738D01*
X1109Y1738D02*
X1140Y1738D01*
X1852Y1738D02*
X1883Y1738D01*
X1975Y1738D02*
X2006Y1738D01*
X2718Y1738D02*
X2749Y1738D01*
X2841Y1738D02*
X2872Y1738D01*
X120Y1737D02*
X151Y1737D01*
X243Y1737D02*
X275Y1737D01*
X986Y1737D02*
X1017Y1737D01*
X1109Y1737D02*
X1141Y1737D01*
X1852Y1737D02*
X1883Y1737D01*
X1975Y1737D02*
X2006Y1737D01*
X2718Y1737D02*
X2749Y1737D01*
X2841Y1737D02*
X2872Y1737D01*
X120Y1736D02*
X151Y1736D01*
X244Y1736D02*
X275Y1736D01*
X986Y1736D02*
X1017Y1736D01*
X1110Y1736D02*
X1141Y1736D01*
X1852Y1736D02*
X1883Y1736D01*
X1976Y1736D02*
X2007Y1736D01*
X2718Y1736D02*
X2749Y1736D01*
X2841Y1736D02*
X2873Y1736D01*
X120Y1735D02*
X151Y1735D01*
X244Y1735D02*
X275Y1735D01*
X986Y1735D02*
X1017Y1735D01*
X1110Y1735D02*
X1141Y1735D01*
X1852Y1735D02*
X1883Y1735D01*
X1976Y1735D02*
X2007Y1735D01*
X2718Y1735D02*
X2749Y1735D01*
X2842Y1735D02*
X2873Y1735D01*
X120Y1734D02*
X151Y1734D01*
X244Y1734D02*
X275Y1734D01*
X985Y1734D02*
X1017Y1734D01*
X1110Y1734D02*
X1141Y1734D01*
X1851Y1734D02*
X1883Y1734D01*
X1976Y1734D02*
X2007Y1734D01*
X2717Y1734D02*
X2748Y1734D01*
X2842Y1734D02*
X2873Y1734D01*
X119Y1733D02*
X150Y1733D01*
X244Y1733D02*
X275Y1733D01*
X985Y1733D02*
X1016Y1733D01*
X1110Y1733D02*
X1141Y1733D01*
X1851Y1733D02*
X1882Y1733D01*
X1976Y1733D02*
X2007Y1733D01*
X2717Y1733D02*
X2748Y1733D01*
X2842Y1733D02*
X2873Y1733D01*
X119Y1732D02*
X150Y1732D01*
X244Y1732D02*
X275Y1732D01*
X985Y1732D02*
X1016Y1732D01*
X1110Y1732D02*
X1141Y1732D01*
X1851Y1732D02*
X1882Y1732D01*
X1976Y1732D02*
X2007Y1732D01*
X2717Y1732D02*
X2748Y1732D01*
X2842Y1732D02*
X2873Y1732D01*
X119Y1731D02*
X150Y1731D01*
X244Y1731D02*
X275Y1731D01*
X985Y1731D02*
X1016Y1731D01*
X1110Y1731D02*
X1141Y1731D01*
X1851Y1731D02*
X1882Y1731D01*
X1976Y1731D02*
X2007Y1731D01*
X2717Y1731D02*
X2748Y1731D01*
X2842Y1731D02*
X2873Y1731D01*
X119Y1730D02*
X150Y1730D01*
X244Y1730D02*
X275Y1730D01*
X985Y1730D02*
X1016Y1730D01*
X1110Y1730D02*
X1141Y1730D01*
X1851Y1730D02*
X1882Y1730D01*
X1976Y1730D02*
X2007Y1730D01*
X2717Y1730D02*
X2748Y1730D01*
X2842Y1730D02*
X2873Y1730D01*
X119Y1729D02*
X150Y1729D01*
X245Y1729D02*
X275Y1729D01*
X985Y1729D02*
X1016Y1729D01*
X1110Y1729D02*
X1141Y1729D01*
X1851Y1729D02*
X1882Y1729D01*
X1976Y1729D02*
X2007Y1729D01*
X2717Y1729D02*
X2748Y1729D01*
X2842Y1729D02*
X2873Y1729D01*
X119Y1728D02*
X150Y1728D01*
X245Y1728D02*
X275Y1728D01*
X985Y1728D02*
X1016Y1728D01*
X1111Y1728D02*
X1141Y1728D01*
X1851Y1728D02*
X1882Y1728D01*
X1976Y1728D02*
X2007Y1728D01*
X2717Y1728D02*
X2748Y1728D01*
X2842Y1728D02*
X2873Y1728D01*
X119Y1727D02*
X150Y1727D01*
X245Y1727D02*
X275Y1727D01*
X985Y1727D02*
X1016Y1727D01*
X1111Y1727D02*
X1141Y1727D01*
X1851Y1727D02*
X1882Y1727D01*
X1977Y1727D02*
X2007Y1727D01*
X2717Y1727D02*
X2748Y1727D01*
X2842Y1727D02*
X2873Y1727D01*
X119Y1726D02*
X150Y1726D01*
X245Y1726D02*
X276Y1726D01*
X985Y1726D02*
X1016Y1726D01*
X1111Y1726D02*
X1141Y1726D01*
X1851Y1726D02*
X1882Y1726D01*
X1977Y1726D02*
X2007Y1726D01*
X2717Y1726D02*
X2748Y1726D01*
X2843Y1726D02*
X2873Y1726D01*
X119Y1725D02*
X150Y1725D01*
X245Y1725D02*
X276Y1725D01*
X985Y1725D02*
X1016Y1725D01*
X1111Y1725D02*
X1141Y1725D01*
X1851Y1725D02*
X1882Y1725D01*
X1977Y1725D02*
X2007Y1725D01*
X2717Y1725D02*
X2748Y1725D01*
X2842Y1725D02*
X2873Y1725D01*
X119Y1724D02*
X150Y1724D01*
X245Y1724D02*
X275Y1724D01*
X985Y1724D02*
X1016Y1724D01*
X1111Y1724D02*
X1141Y1724D01*
X1851Y1724D02*
X1882Y1724D01*
X1976Y1724D02*
X2007Y1724D01*
X2717Y1724D02*
X2748Y1724D01*
X2842Y1724D02*
X2873Y1724D01*
X119Y1723D02*
X150Y1723D01*
X245Y1723D02*
X275Y1723D01*
X985Y1723D02*
X1016Y1723D01*
X1110Y1723D02*
X1141Y1723D01*
X1851Y1723D02*
X1882Y1723D01*
X1976Y1723D02*
X2007Y1723D01*
X2717Y1723D02*
X2748Y1723D01*
X2842Y1723D02*
X2873Y1723D01*
X119Y1722D02*
X150Y1722D01*
X244Y1722D02*
X275Y1722D01*
X985Y1722D02*
X1016Y1722D01*
X1110Y1722D02*
X1141Y1722D01*
X1851Y1722D02*
X1882Y1722D01*
X1976Y1722D02*
X2007Y1722D01*
X2717Y1722D02*
X2748Y1722D01*
X2842Y1722D02*
X2873Y1722D01*
X119Y1721D02*
X150Y1721D01*
X244Y1721D02*
X275Y1721D01*
X985Y1721D02*
X1016Y1721D01*
X1110Y1721D02*
X1141Y1721D01*
X1851Y1721D02*
X1882Y1721D01*
X1976Y1721D02*
X2007Y1721D01*
X2717Y1721D02*
X2748Y1721D01*
X2842Y1721D02*
X2873Y1721D01*
X119Y1720D02*
X150Y1720D01*
X244Y1720D02*
X275Y1720D01*
X985Y1720D02*
X1016Y1720D01*
X1110Y1720D02*
X1141Y1720D01*
X1851Y1720D02*
X1882Y1720D01*
X1976Y1720D02*
X2007Y1720D01*
X2717Y1720D02*
X2748Y1720D01*
X2842Y1720D02*
X2873Y1720D01*
X119Y1719D02*
X150Y1719D01*
X244Y1719D02*
X275Y1719D01*
X985Y1719D02*
X1016Y1719D01*
X1110Y1719D02*
X1141Y1719D01*
X1851Y1719D02*
X1882Y1719D01*
X1976Y1719D02*
X2007Y1719D01*
X2717Y1719D02*
X2748Y1719D01*
X2842Y1719D02*
X2873Y1719D01*
X120Y1718D02*
X151Y1718D01*
X244Y1718D02*
X275Y1718D01*
X985Y1718D02*
X1017Y1718D01*
X1110Y1718D02*
X1141Y1718D01*
X1851Y1718D02*
X1883Y1718D01*
X1976Y1718D02*
X2007Y1718D01*
X2717Y1718D02*
X2748Y1718D01*
X2842Y1718D02*
X2873Y1718D01*
X120Y1717D02*
X151Y1717D01*
X244Y1717D02*
X275Y1717D01*
X986Y1717D02*
X1017Y1717D01*
X1110Y1717D02*
X1141Y1717D01*
X1852Y1717D02*
X1883Y1717D01*
X1976Y1717D02*
X2007Y1717D01*
X2718Y1717D02*
X2749Y1717D01*
X2842Y1717D02*
X2873Y1717D01*
X120Y1716D02*
X151Y1716D01*
X244Y1716D02*
X275Y1716D01*
X986Y1716D02*
X1017Y1716D01*
X1110Y1716D02*
X1141Y1716D01*
X1852Y1716D02*
X1883Y1716D01*
X1976Y1716D02*
X2007Y1716D01*
X2718Y1716D02*
X2749Y1716D01*
X2842Y1716D02*
X2873Y1716D01*
X120Y1715D02*
X151Y1715D01*
X243Y1715D02*
X275Y1715D01*
X986Y1715D02*
X1017Y1715D01*
X1109Y1715D02*
X1141Y1715D01*
X1852Y1715D02*
X1883Y1715D01*
X1975Y1715D02*
X2007Y1715D01*
X2718Y1715D02*
X2749Y1715D01*
X2841Y1715D02*
X2872Y1715D01*
X120Y1714D02*
X151Y1714D01*
X243Y1714D02*
X274Y1714D01*
X986Y1714D02*
X1017Y1714D01*
X1109Y1714D02*
X1140Y1714D01*
X1852Y1714D02*
X1883Y1714D01*
X1975Y1714D02*
X2006Y1714D01*
X2718Y1714D02*
X2749Y1714D01*
X2841Y1714D02*
X2872Y1714D01*
X120Y1713D02*
X152Y1713D01*
X243Y1713D02*
X274Y1713D01*
X986Y1713D02*
X1018Y1713D01*
X1109Y1713D02*
X1140Y1713D01*
X1852Y1713D02*
X1884Y1713D01*
X1975Y1713D02*
X2006Y1713D01*
X2718Y1713D02*
X2750Y1713D01*
X2841Y1713D02*
X2872Y1713D01*
X120Y1712D02*
X152Y1712D01*
X243Y1712D02*
X274Y1712D01*
X986Y1712D02*
X1018Y1712D01*
X1109Y1712D02*
X1140Y1712D01*
X1852Y1712D02*
X1884Y1712D01*
X1974Y1712D02*
X2006Y1712D01*
X2718Y1712D02*
X2750Y1712D01*
X2840Y1712D02*
X2872Y1712D01*
X121Y1711D02*
X152Y1711D01*
X242Y1711D02*
X274Y1711D01*
X987Y1711D02*
X1018Y1711D01*
X1108Y1711D02*
X1140Y1711D01*
X1853Y1711D02*
X1884Y1711D01*
X1974Y1711D02*
X2006Y1711D01*
X2718Y1711D02*
X2750Y1711D01*
X2840Y1711D02*
X2872Y1711D01*
X121Y1710D02*
X153Y1710D01*
X242Y1710D02*
X274Y1710D01*
X987Y1710D02*
X1019Y1710D01*
X1108Y1710D02*
X1140Y1710D01*
X1853Y1710D02*
X1885Y1710D01*
X1974Y1710D02*
X2006Y1710D01*
X2719Y1710D02*
X2751Y1710D01*
X2840Y1710D02*
X2872Y1710D01*
X121Y1709D02*
X153Y1709D01*
X241Y1709D02*
X274Y1709D01*
X987Y1709D02*
X1019Y1709D01*
X1107Y1709D02*
X1140Y1709D01*
X1853Y1709D02*
X1885Y1709D01*
X1973Y1709D02*
X2005Y1709D01*
X2719Y1709D02*
X2751Y1709D01*
X2839Y1709D02*
X2871Y1709D01*
X121Y1708D02*
X154Y1708D01*
X241Y1708D02*
X273Y1708D01*
X987Y1708D02*
X1019Y1708D01*
X1107Y1708D02*
X1139Y1708D01*
X1853Y1708D02*
X1885Y1708D01*
X1973Y1708D02*
X2005Y1708D01*
X2719Y1708D02*
X2751Y1708D01*
X2839Y1708D02*
X2871Y1708D01*
X122Y1707D02*
X154Y1707D01*
X241Y1707D02*
X273Y1707D01*
X987Y1707D02*
X1020Y1707D01*
X1107Y1707D02*
X1139Y1707D01*
X1853Y1707D02*
X1886Y1707D01*
X1973Y1707D02*
X2005Y1707D01*
X2719Y1707D02*
X2752Y1707D01*
X2839Y1707D02*
X2871Y1707D01*
X122Y1706D02*
X154Y1706D01*
X240Y1706D02*
X273Y1706D01*
X988Y1706D02*
X1020Y1706D01*
X1106Y1706D02*
X1139Y1706D01*
X1854Y1706D02*
X1886Y1706D01*
X1972Y1706D02*
X2005Y1706D01*
X2720Y1706D02*
X2752Y1706D01*
X2838Y1706D02*
X2871Y1706D01*
X122Y1705D02*
X155Y1705D01*
X240Y1705D02*
X273Y1705D01*
X988Y1705D02*
X1021Y1705D01*
X1106Y1705D02*
X1139Y1705D01*
X1854Y1705D02*
X1887Y1705D01*
X1972Y1705D02*
X2004Y1705D01*
X2720Y1705D02*
X2753Y1705D01*
X2838Y1705D02*
X2870Y1705D01*
X122Y1704D02*
X155Y1704D01*
X239Y1704D02*
X272Y1704D01*
X988Y1704D02*
X1021Y1704D01*
X1105Y1704D02*
X1138Y1704D01*
X1854Y1704D02*
X1887Y1704D01*
X1971Y1704D02*
X2004Y1704D01*
X2720Y1704D02*
X2753Y1704D01*
X2837Y1704D02*
X2870Y1704D01*
X123Y1703D02*
X156Y1703D01*
X239Y1703D02*
X272Y1703D01*
X988Y1703D02*
X1022Y1703D01*
X1105Y1703D02*
X1138Y1703D01*
X1854Y1703D02*
X1888Y1703D01*
X1971Y1703D02*
X2004Y1703D01*
X2720Y1703D02*
X2754Y1703D01*
X2837Y1703D02*
X2870Y1703D01*
X123Y1702D02*
X156Y1702D01*
X238Y1702D02*
X272Y1702D01*
X989Y1702D02*
X1022Y1702D01*
X1104Y1702D02*
X1138Y1702D01*
X1855Y1702D02*
X1888Y1702D01*
X1970Y1702D02*
X2004Y1702D01*
X2721Y1702D02*
X2754Y1702D01*
X2836Y1702D02*
X2870Y1702D01*
X123Y1701D02*
X157Y1701D01*
X238Y1701D02*
X271Y1701D01*
X989Y1701D02*
X1023Y1701D01*
X1103Y1701D02*
X1137Y1701D01*
X1855Y1701D02*
X1889Y1701D01*
X1969Y1701D02*
X2003Y1701D01*
X2721Y1701D02*
X2755Y1701D01*
X2835Y1701D02*
X2869Y1701D01*
X124Y1700D02*
X158Y1700D01*
X237Y1700D02*
X271Y1700D01*
X990Y1700D02*
X1024Y1700D01*
X1103Y1700D02*
X1137Y1700D01*
X1855Y1700D02*
X1890Y1700D01*
X1969Y1700D02*
X2003Y1700D01*
X2721Y1700D02*
X2756Y1700D01*
X2835Y1700D02*
X2869Y1700D01*
X124Y1699D02*
X158Y1699D01*
X236Y1699D02*
X271Y1699D01*
X990Y1699D02*
X1024Y1699D01*
X1102Y1699D02*
X1137Y1699D01*
X1856Y1699D02*
X1890Y1699D01*
X1968Y1699D02*
X2003Y1699D01*
X2722Y1699D02*
X2756Y1699D01*
X2834Y1699D02*
X2869Y1699D01*
X124Y1698D02*
X159Y1698D01*
X235Y1698D02*
X270Y1698D01*
X990Y1698D02*
X1025Y1698D01*
X1101Y1698D02*
X1136Y1698D01*
X1856Y1698D02*
X1891Y1698D01*
X1967Y1698D02*
X2002Y1698D01*
X2722Y1698D02*
X2757Y1698D01*
X2833Y1698D02*
X2868Y1698D01*
X125Y1697D02*
X160Y1697D01*
X235Y1697D02*
X270Y1697D01*
X991Y1697D02*
X1026Y1697D01*
X1101Y1697D02*
X1136Y1697D01*
X1857Y1697D02*
X1892Y1697D01*
X1967Y1697D02*
X2002Y1697D01*
X2723Y1697D02*
X2758Y1697D01*
X2833Y1697D02*
X2868Y1697D01*
X125Y1696D02*
X161Y1696D01*
X234Y1696D02*
X270Y1696D01*
X991Y1696D02*
X1027Y1696D01*
X1100Y1696D02*
X1136Y1696D01*
X1857Y1696D02*
X1893Y1696D01*
X1966Y1696D02*
X2002Y1696D01*
X2723Y1696D02*
X2759Y1696D01*
X2832Y1696D02*
X2867Y1696D01*
X125Y1695D02*
X162Y1695D01*
X233Y1695D02*
X269Y1695D01*
X991Y1695D02*
X1028Y1695D01*
X1099Y1695D02*
X1135Y1695D01*
X1857Y1695D02*
X1894Y1695D01*
X1965Y1695D02*
X2001Y1695D01*
X2723Y1695D02*
X2760Y1695D01*
X2831Y1695D02*
X2867Y1695D01*
X126Y1694D02*
X163Y1694D01*
X232Y1694D02*
X269Y1694D01*
X992Y1694D02*
X1029Y1694D01*
X1098Y1694D02*
X1135Y1694D01*
X1858Y1694D02*
X1894Y1694D01*
X1964Y1694D02*
X2001Y1694D01*
X2724Y1694D02*
X2760Y1694D01*
X2830Y1694D02*
X2867Y1694D01*
X126Y1693D02*
X163Y1693D01*
X231Y1693D02*
X268Y1693D01*
X992Y1693D02*
X1029Y1693D01*
X1097Y1693D02*
X1134Y1693D01*
X1858Y1693D02*
X1895Y1693D01*
X1963Y1693D02*
X2000Y1693D01*
X2724Y1693D02*
X2761Y1693D01*
X2829Y1693D02*
X2866Y1693D01*
X127Y1692D02*
X165Y1692D01*
X230Y1692D02*
X268Y1692D01*
X993Y1692D02*
X1030Y1692D01*
X1096Y1692D02*
X1134Y1692D01*
X1859Y1692D02*
X1896Y1692D01*
X1962Y1692D02*
X2000Y1692D01*
X2725Y1692D02*
X2762Y1692D01*
X2828Y1692D02*
X2866Y1692D01*
X127Y1691D02*
X166Y1691D01*
X229Y1691D02*
X267Y1691D01*
X993Y1691D02*
X1032Y1691D01*
X1095Y1691D02*
X1133Y1691D01*
X1859Y1691D02*
X1898Y1691D01*
X1961Y1691D02*
X1999Y1691D01*
X2725Y1691D02*
X2763Y1691D01*
X2827Y1691D02*
X2865Y1691D01*
X128Y1690D02*
X167Y1690D01*
X228Y1690D02*
X267Y1690D01*
X994Y1690D02*
X1033Y1690D01*
X1094Y1690D02*
X1133Y1690D01*
X1860Y1690D02*
X1899Y1690D01*
X1960Y1690D02*
X1999Y1690D01*
X2726Y1690D02*
X2765Y1690D01*
X2826Y1690D02*
X2865Y1690D01*
X128Y1689D02*
X168Y1689D01*
X227Y1689D02*
X266Y1689D01*
X994Y1689D02*
X1034Y1689D01*
X1093Y1689D02*
X1132Y1689D01*
X1860Y1689D02*
X1900Y1689D01*
X1959Y1689D02*
X1998Y1689D01*
X2726Y1689D02*
X2766Y1689D01*
X2825Y1689D02*
X2864Y1689D01*
X129Y1688D02*
X169Y1688D01*
X225Y1688D02*
X266Y1688D01*
X995Y1688D02*
X1035Y1688D01*
X1091Y1688D02*
X1132Y1688D01*
X1861Y1688D02*
X1901Y1688D01*
X1957Y1688D02*
X1998Y1688D01*
X2727Y1688D02*
X2767Y1688D01*
X2823Y1688D02*
X2864Y1688D01*
X129Y1687D02*
X171Y1687D01*
X224Y1687D02*
X265Y1687D01*
X995Y1687D02*
X1037Y1687D01*
X1090Y1687D02*
X1131Y1687D01*
X1861Y1687D02*
X1902Y1687D01*
X1956Y1687D02*
X1997Y1687D01*
X2727Y1687D02*
X2768Y1687D01*
X2822Y1687D02*
X2863Y1687D01*
X130Y1686D02*
X172Y1686D01*
X222Y1686D02*
X265Y1686D01*
X996Y1686D02*
X1038Y1686D01*
X1088Y1686D02*
X1130Y1686D01*
X1862Y1686D02*
X1904Y1686D01*
X1954Y1686D02*
X1996Y1686D01*
X2728Y1686D02*
X2770Y1686D01*
X2820Y1686D02*
X2862Y1686D01*
X131Y1685D02*
X174Y1685D01*
X221Y1685D02*
X264Y1685D01*
X997Y1685D02*
X1040Y1685D01*
X1087Y1685D02*
X1130Y1685D01*
X1863Y1685D02*
X1906Y1685D01*
X1953Y1685D02*
X1996Y1685D01*
X2729Y1685D02*
X2772Y1685D01*
X2819Y1685D02*
X2862Y1685D01*
X131Y1684D02*
X176Y1684D01*
X219Y1684D02*
X263Y1684D01*
X997Y1684D02*
X1042Y1684D01*
X1085Y1684D02*
X1129Y1684D01*
X1863Y1684D02*
X1908Y1684D01*
X1951Y1684D02*
X1995Y1684D01*
X2729Y1684D02*
X2774Y1684D01*
X2817Y1684D02*
X2861Y1684D01*
X132Y1683D02*
X178Y1683D01*
X217Y1683D02*
X263Y1683D01*
X998Y1683D02*
X1044Y1683D01*
X1083Y1683D02*
X1129Y1683D01*
X1864Y1683D02*
X1910Y1683D01*
X1948Y1683D02*
X1995Y1683D01*
X2730Y1683D02*
X2776Y1683D01*
X2814Y1683D02*
X2861Y1683D01*
X133Y1682D02*
X181Y1682D01*
X214Y1682D02*
X262Y1682D01*
X999Y1682D02*
X1046Y1682D01*
X1080Y1682D02*
X1128Y1682D01*
X1864Y1682D02*
X1912Y1682D01*
X1946Y1682D02*
X1994Y1682D01*
X2730Y1682D02*
X2778Y1682D01*
X2812Y1682D02*
X2860Y1682D01*
X133Y1681D02*
X183Y1681D01*
X211Y1681D02*
X261Y1681D01*
X999Y1681D02*
X1049Y1681D01*
X1077Y1681D02*
X1127Y1681D01*
X1865Y1681D02*
X1915Y1681D01*
X1943Y1681D02*
X1993Y1681D01*
X2731Y1681D02*
X2781Y1681D01*
X2809Y1681D02*
X2859Y1681D01*
X134Y1680D02*
X187Y1680D01*
X208Y1680D02*
X261Y1680D01*
X1000Y1680D02*
X1053Y1680D01*
X1073Y1680D02*
X1127Y1680D01*
X1866Y1680D02*
X1919Y1680D01*
X1939Y1680D02*
X1992Y1680D01*
X2732Y1680D02*
X2785Y1680D01*
X2805Y1680D02*
X2858Y1680D01*
X135Y1679D02*
X260Y1679D01*
X1001Y1679D02*
X1126Y1679D01*
X1867Y1679D02*
X1992Y1679D01*
X2733Y1679D02*
X2858Y1679D01*
X136Y1678D02*
X259Y1678D01*
X1001Y1678D02*
X1125Y1678D01*
X1867Y1678D02*
X1991Y1678D01*
X2733Y1678D02*
X2857Y1678D01*
X136Y1677D02*
X258Y1677D01*
X1002Y1677D02*
X1124Y1677D01*
X1868Y1677D02*
X1990Y1677D01*
X2734Y1677D02*
X2856Y1677D01*
X137Y1676D02*
X258Y1676D01*
X1003Y1676D02*
X1124Y1676D01*
X1869Y1676D02*
X1990Y1676D01*
X2735Y1676D02*
X2855Y1676D01*
X138Y1675D02*
X257Y1675D01*
X1004Y1675D02*
X1123Y1675D01*
X1870Y1675D02*
X1989Y1675D01*
X2736Y1675D02*
X2855Y1675D01*
X139Y1674D02*
X256Y1674D01*
X1005Y1674D02*
X1122Y1674D01*
X1871Y1674D02*
X1988Y1674D01*
X2737Y1674D02*
X2854Y1674D01*
X140Y1673D02*
X255Y1673D01*
X1006Y1673D02*
X1121Y1673D01*
X1872Y1673D02*
X1987Y1673D01*
X2738Y1673D02*
X2853Y1673D01*
X141Y1672D02*
X254Y1672D01*
X1006Y1672D02*
X1120Y1672D01*
X1872Y1672D02*
X1986Y1672D01*
X2738Y1672D02*
X2852Y1672D01*
X141Y1671D02*
X253Y1671D01*
X1007Y1671D02*
X1119Y1671D01*
X1873Y1671D02*
X1985Y1671D01*
X2739Y1671D02*
X2851Y1671D01*
X142Y1670D02*
X252Y1670D01*
X1008Y1670D02*
X1118Y1670D01*
X1874Y1670D02*
X1984Y1670D01*
X2740Y1670D02*
X2850Y1670D01*
X144Y1669D02*
X251Y1669D01*
X1009Y1669D02*
X1117Y1669D01*
X1875Y1669D02*
X1983Y1669D01*
X2741Y1669D02*
X2849Y1669D01*
X145Y1668D02*
X250Y1668D01*
X1011Y1668D02*
X1116Y1668D01*
X1877Y1668D02*
X1982Y1668D01*
X2742Y1668D02*
X2848Y1668D01*
X146Y1667D02*
X249Y1667D01*
X1012Y1667D02*
X1115Y1667D01*
X1878Y1667D02*
X1981Y1667D01*
X2744Y1667D02*
X2847Y1667D01*
X147Y1666D02*
X248Y1666D01*
X1013Y1666D02*
X1114Y1666D01*
X1879Y1666D02*
X1980Y1666D01*
X2745Y1666D02*
X2846Y1666D01*
X148Y1665D02*
X247Y1665D01*
X1014Y1665D02*
X1113Y1665D01*
X1880Y1665D02*
X1978Y1665D01*
X2746Y1665D02*
X2844Y1665D01*
X149Y1664D02*
X245Y1664D01*
X1015Y1664D02*
X1111Y1664D01*
X1881Y1664D02*
X1977Y1664D01*
X2747Y1664D02*
X2843Y1664D01*
X151Y1663D02*
X244Y1663D01*
X1017Y1663D02*
X1110Y1663D01*
X1883Y1663D02*
X1976Y1663D01*
X2749Y1663D02*
X2842Y1663D01*
X152Y1662D02*
X243Y1662D01*
X1018Y1662D02*
X1108Y1662D01*
X1884Y1662D02*
X1974Y1662D01*
X2750Y1662D02*
X2840Y1662D01*
X153Y1661D02*
X241Y1661D01*
X1019Y1661D02*
X1107Y1661D01*
X1885Y1661D02*
X1973Y1661D01*
X2751Y1661D02*
X2839Y1661D01*
X155Y1660D02*
X240Y1660D01*
X1021Y1660D02*
X1106Y1660D01*
X1887Y1660D02*
X1972Y1660D01*
X2753Y1660D02*
X2838Y1660D01*
X157Y1659D02*
X238Y1659D01*
X1023Y1659D02*
X1104Y1659D01*
X1888Y1659D02*
X1970Y1659D01*
X2754Y1659D02*
X2836Y1659D01*
X158Y1658D02*
X236Y1658D01*
X1024Y1658D02*
X1102Y1658D01*
X1890Y1658D02*
X1968Y1658D01*
X2756Y1658D02*
X2834Y1658D01*
X160Y1657D02*
X235Y1657D01*
X1026Y1657D02*
X1101Y1657D01*
X1892Y1657D02*
X1967Y1657D01*
X2758Y1657D02*
X2833Y1657D01*
X162Y1656D02*
X233Y1656D01*
X1028Y1656D02*
X1099Y1656D01*
X1894Y1656D02*
X1965Y1656D01*
X2760Y1656D02*
X2831Y1656D01*
X164Y1655D02*
X231Y1655D01*
X1030Y1655D02*
X1097Y1655D01*
X1896Y1655D02*
X1963Y1655D01*
X2762Y1655D02*
X2829Y1655D01*
X166Y1654D02*
X229Y1654D01*
X1032Y1654D02*
X1095Y1654D01*
X1898Y1654D02*
X1961Y1654D01*
X2764Y1654D02*
X2827Y1654D01*
X168Y1653D02*
X226Y1653D01*
X1034Y1653D02*
X1092Y1653D01*
X1900Y1653D02*
X1958Y1653D01*
X2766Y1653D02*
X2824Y1653D01*
X171Y1652D02*
X224Y1652D01*
X1037Y1652D02*
X1090Y1652D01*
X1903Y1652D02*
X1956Y1652D01*
X2769Y1652D02*
X2821Y1652D01*
X174Y1651D02*
X221Y1651D01*
X1040Y1651D02*
X1087Y1651D01*
X1906Y1651D02*
X1953Y1651D01*
X2772Y1651D02*
X2819Y1651D01*
X178Y1650D02*
X217Y1650D01*
X1043Y1650D02*
X1083Y1650D01*
X1909Y1650D02*
X1949Y1650D01*
X2775Y1650D02*
X2815Y1650D01*
X181Y1649D02*
X213Y1649D01*
X1047Y1649D02*
X1079Y1649D01*
X1913Y1649D02*
X1945Y1649D01*
X2779Y1649D02*
X2811Y1649D01*
X188Y1648D02*
X207Y1648D01*
X1053Y1648D02*
X1073Y1648D01*
X1919Y1648D02*
X1939Y1648D01*
X2785Y1648D02*
X2805Y1648D01*
X188Y1312D02*
X206Y1312D01*
X1054Y1312D02*
X1072Y1312D01*
X1920Y1312D02*
X1938Y1312D01*
X2786Y1312D02*
X2804Y1312D01*
X182Y1311D02*
X213Y1311D01*
X1048Y1311D02*
X1079Y1311D01*
X1914Y1311D02*
X1945Y1311D01*
X2780Y1311D02*
X2810Y1311D01*
X178Y1310D02*
X217Y1310D01*
X1044Y1310D02*
X1083Y1310D01*
X1910Y1310D02*
X1949Y1310D01*
X2776Y1310D02*
X2814Y1310D01*
X174Y1309D02*
X220Y1309D01*
X1040Y1309D02*
X1086Y1309D01*
X1906Y1309D02*
X1952Y1309D01*
X2772Y1309D02*
X2818Y1309D01*
X171Y1308D02*
X223Y1308D01*
X1037Y1308D02*
X1089Y1308D01*
X1903Y1308D02*
X1955Y1308D01*
X2769Y1308D02*
X2821Y1308D01*
X169Y1307D02*
X226Y1307D01*
X1035Y1307D02*
X1092Y1307D01*
X1900Y1307D02*
X1958Y1307D01*
X2766Y1307D02*
X2824Y1307D01*
X166Y1306D02*
X228Y1306D01*
X1032Y1306D02*
X1094Y1306D01*
X1898Y1306D02*
X1960Y1306D01*
X2764Y1306D02*
X2826Y1306D01*
X164Y1305D02*
X231Y1305D01*
X1030Y1305D02*
X1096Y1305D01*
X1896Y1305D02*
X1962Y1305D01*
X2762Y1305D02*
X2828Y1305D01*
X162Y1304D02*
X233Y1304D01*
X1028Y1304D02*
X1099Y1304D01*
X1894Y1304D02*
X1964Y1304D01*
X2760Y1304D02*
X2830Y1304D01*
X160Y1303D02*
X235Y1303D01*
X1026Y1303D02*
X1100Y1303D01*
X1892Y1303D02*
X1966Y1303D01*
X2758Y1303D02*
X2832Y1303D01*
X158Y1302D02*
X236Y1302D01*
X1024Y1302D02*
X1102Y1302D01*
X1890Y1302D02*
X1968Y1302D01*
X2756Y1302D02*
X2834Y1302D01*
X157Y1301D02*
X238Y1301D01*
X1023Y1301D02*
X1104Y1301D01*
X1889Y1301D02*
X1970Y1301D01*
X2755Y1301D02*
X2836Y1301D01*
X155Y1300D02*
X239Y1300D01*
X1021Y1300D02*
X1105Y1300D01*
X1887Y1300D02*
X1971Y1300D01*
X2753Y1300D02*
X2837Y1300D01*
X154Y1299D02*
X241Y1299D01*
X1020Y1299D02*
X1107Y1299D01*
X1886Y1299D02*
X1973Y1299D01*
X2751Y1299D02*
X2839Y1299D01*
X152Y1298D02*
X242Y1298D01*
X1018Y1298D02*
X1108Y1298D01*
X1884Y1298D02*
X1974Y1298D01*
X2750Y1298D02*
X2840Y1298D01*
X151Y1297D02*
X244Y1297D01*
X1017Y1297D02*
X1110Y1297D01*
X1883Y1297D02*
X1976Y1297D01*
X2749Y1297D02*
X2842Y1297D01*
X150Y1296D02*
X245Y1296D01*
X1016Y1296D02*
X1111Y1296D01*
X1881Y1296D02*
X1977Y1296D01*
X2747Y1296D02*
X2843Y1296D01*
X148Y1295D02*
X246Y1295D01*
X1014Y1295D02*
X1112Y1295D01*
X1880Y1295D02*
X1978Y1295D01*
X2746Y1295D02*
X2844Y1295D01*
X147Y1294D02*
X248Y1294D01*
X1013Y1294D02*
X1114Y1294D01*
X1879Y1294D02*
X1980Y1294D01*
X2745Y1294D02*
X2845Y1294D01*
X146Y1293D02*
X249Y1293D01*
X1012Y1293D02*
X1115Y1293D01*
X1878Y1293D02*
X1981Y1293D01*
X2744Y1293D02*
X2847Y1293D01*
X145Y1292D02*
X250Y1292D01*
X1011Y1292D02*
X1116Y1292D01*
X1877Y1292D02*
X1982Y1292D01*
X2743Y1292D02*
X2848Y1292D01*
X144Y1291D02*
X251Y1291D01*
X1010Y1291D02*
X1117Y1291D01*
X1876Y1291D02*
X1983Y1291D01*
X2742Y1291D02*
X2849Y1291D01*
X143Y1290D02*
X252Y1290D01*
X1009Y1290D02*
X1118Y1290D01*
X1874Y1290D02*
X1984Y1290D01*
X2740Y1290D02*
X2850Y1290D01*
X142Y1289D02*
X253Y1289D01*
X1008Y1289D02*
X1119Y1289D01*
X1873Y1289D02*
X1985Y1289D01*
X2739Y1289D02*
X2851Y1289D01*
X141Y1288D02*
X254Y1288D01*
X1007Y1288D02*
X1120Y1288D01*
X1873Y1288D02*
X1986Y1288D01*
X2739Y1288D02*
X2852Y1288D01*
X140Y1287D02*
X255Y1287D01*
X1006Y1287D02*
X1121Y1287D01*
X1872Y1287D02*
X1987Y1287D01*
X2738Y1287D02*
X2853Y1287D01*
X139Y1286D02*
X256Y1286D01*
X1005Y1286D02*
X1122Y1286D01*
X1871Y1286D02*
X1988Y1286D01*
X2737Y1286D02*
X2854Y1286D01*
X138Y1285D02*
X257Y1285D01*
X1004Y1285D02*
X1123Y1285D01*
X1870Y1285D02*
X1989Y1285D01*
X2736Y1285D02*
X2854Y1285D01*
X137Y1284D02*
X258Y1284D01*
X1003Y1284D02*
X1123Y1284D01*
X1869Y1284D02*
X1989Y1284D01*
X2735Y1284D02*
X2855Y1284D01*
X136Y1283D02*
X258Y1283D01*
X1002Y1283D02*
X1124Y1283D01*
X1868Y1283D02*
X1990Y1283D01*
X2734Y1283D02*
X2856Y1283D01*
X136Y1282D02*
X259Y1282D01*
X1002Y1282D02*
X1125Y1282D01*
X1868Y1282D02*
X1991Y1282D01*
X2733Y1282D02*
X2857Y1282D01*
X135Y1281D02*
X260Y1281D01*
X1001Y1281D02*
X1126Y1281D01*
X1867Y1281D02*
X1992Y1281D01*
X2733Y1281D02*
X2858Y1281D01*
X134Y1280D02*
X188Y1280D01*
X207Y1280D02*
X260Y1280D01*
X1000Y1280D02*
X1054Y1280D01*
X1073Y1280D02*
X1126Y1280D01*
X1866Y1280D02*
X1920Y1280D01*
X1939Y1280D02*
X1992Y1280D01*
X2732Y1280D02*
X2786Y1280D01*
X2805Y1280D02*
X2858Y1280D01*
X133Y1279D02*
X184Y1279D01*
X211Y1279D02*
X261Y1279D01*
X999Y1279D02*
X1050Y1279D01*
X1077Y1279D02*
X1127Y1279D01*
X1865Y1279D02*
X1916Y1279D01*
X1943Y1279D02*
X1993Y1279D01*
X2731Y1279D02*
X2782Y1279D01*
X2809Y1279D02*
X2859Y1279D01*
X133Y1278D02*
X181Y1278D01*
X214Y1278D02*
X262Y1278D01*
X999Y1278D02*
X1047Y1278D01*
X1080Y1278D02*
X1128Y1278D01*
X1865Y1278D02*
X1913Y1278D01*
X1946Y1278D02*
X1994Y1278D01*
X2731Y1278D02*
X2779Y1278D01*
X2812Y1278D02*
X2860Y1278D01*
X132Y1277D02*
X178Y1277D01*
X216Y1277D02*
X263Y1277D01*
X998Y1277D02*
X1044Y1277D01*
X1082Y1277D02*
X1129Y1277D01*
X1864Y1277D02*
X1910Y1277D01*
X1948Y1277D02*
X1995Y1277D01*
X2730Y1277D02*
X2776Y1277D01*
X2814Y1277D02*
X2860Y1277D01*
X131Y1276D02*
X176Y1276D01*
X218Y1276D02*
X263Y1276D01*
X997Y1276D02*
X1042Y1276D01*
X1084Y1276D02*
X1129Y1276D01*
X1863Y1276D02*
X1908Y1276D01*
X1950Y1276D02*
X1995Y1276D01*
X2729Y1276D02*
X2774Y1276D01*
X2816Y1276D02*
X2861Y1276D01*
X131Y1275D02*
X174Y1275D01*
X220Y1275D02*
X264Y1275D01*
X997Y1275D02*
X1040Y1275D01*
X1086Y1275D02*
X1130Y1275D01*
X1863Y1275D02*
X1906Y1275D01*
X1952Y1275D02*
X1996Y1275D01*
X2729Y1275D02*
X2772Y1275D01*
X2818Y1275D02*
X2862Y1275D01*
X130Y1274D02*
X172Y1274D01*
X222Y1274D02*
X264Y1274D01*
X996Y1274D02*
X1038Y1274D01*
X1088Y1274D02*
X1130Y1274D01*
X1862Y1274D02*
X1904Y1274D01*
X1954Y1274D02*
X1996Y1274D01*
X2728Y1274D02*
X2770Y1274D01*
X2820Y1274D02*
X2862Y1274D01*
X130Y1273D02*
X171Y1273D01*
X224Y1273D02*
X265Y1273D01*
X996Y1273D02*
X1037Y1273D01*
X1090Y1273D02*
X1131Y1273D01*
X1861Y1273D02*
X1903Y1273D01*
X1956Y1273D02*
X1997Y1273D01*
X2727Y1273D02*
X2769Y1273D01*
X2822Y1273D02*
X2863Y1273D01*
X129Y1272D02*
X169Y1272D01*
X225Y1272D02*
X266Y1272D01*
X995Y1272D02*
X1035Y1272D01*
X1091Y1272D02*
X1132Y1272D01*
X1861Y1272D02*
X1901Y1272D01*
X1957Y1272D02*
X1998Y1272D01*
X2727Y1272D02*
X2767Y1272D01*
X2823Y1272D02*
X2864Y1272D01*
X128Y1271D02*
X168Y1271D01*
X227Y1271D02*
X266Y1271D01*
X994Y1271D02*
X1034Y1271D01*
X1092Y1271D02*
X1132Y1271D01*
X1860Y1271D02*
X1900Y1271D01*
X1958Y1271D02*
X1998Y1271D01*
X2726Y1271D02*
X2766Y1271D01*
X2824Y1271D02*
X2864Y1271D01*
X128Y1270D02*
X167Y1270D01*
X228Y1270D02*
X267Y1270D01*
X994Y1270D02*
X1033Y1270D01*
X1094Y1270D02*
X1133Y1270D01*
X1860Y1270D02*
X1899Y1270D01*
X1960Y1270D02*
X1999Y1270D01*
X2726Y1270D02*
X2765Y1270D01*
X2826Y1270D02*
X2865Y1270D01*
X127Y1269D02*
X166Y1269D01*
X229Y1269D02*
X267Y1269D01*
X993Y1269D02*
X1032Y1269D01*
X1095Y1269D02*
X1133Y1269D01*
X1859Y1269D02*
X1898Y1269D01*
X1961Y1269D02*
X1999Y1269D01*
X2725Y1269D02*
X2764Y1269D01*
X2827Y1269D02*
X2865Y1269D01*
X127Y1268D02*
X165Y1268D01*
X230Y1268D02*
X268Y1268D01*
X993Y1268D02*
X1031Y1268D01*
X1096Y1268D02*
X1134Y1268D01*
X1859Y1268D02*
X1897Y1268D01*
X1962Y1268D02*
X2000Y1268D01*
X2725Y1268D02*
X2763Y1268D01*
X2828Y1268D02*
X2866Y1268D01*
X126Y1267D02*
X164Y1267D01*
X231Y1267D02*
X268Y1267D01*
X992Y1267D02*
X1030Y1267D01*
X1097Y1267D02*
X1134Y1267D01*
X1858Y1267D02*
X1896Y1267D01*
X1963Y1267D02*
X2000Y1267D01*
X2724Y1267D02*
X2761Y1267D01*
X2829Y1267D02*
X2866Y1267D01*
X126Y1266D02*
X163Y1266D01*
X232Y1266D02*
X269Y1266D01*
X992Y1266D02*
X1029Y1266D01*
X1098Y1266D02*
X1135Y1266D01*
X1858Y1266D02*
X1895Y1266D01*
X1964Y1266D02*
X2001Y1266D01*
X2724Y1266D02*
X2761Y1266D01*
X2830Y1266D02*
X2867Y1266D01*
X125Y1265D02*
X162Y1265D01*
X233Y1265D02*
X269Y1265D01*
X991Y1265D02*
X1028Y1265D01*
X1099Y1265D02*
X1135Y1265D01*
X1857Y1265D02*
X1894Y1265D01*
X1965Y1265D02*
X2001Y1265D01*
X2723Y1265D02*
X2760Y1265D01*
X2831Y1265D02*
X2867Y1265D01*
X125Y1264D02*
X161Y1264D01*
X234Y1264D02*
X270Y1264D01*
X991Y1264D02*
X1027Y1264D01*
X1100Y1264D02*
X1136Y1264D01*
X1857Y1264D02*
X1893Y1264D01*
X1966Y1264D02*
X2001Y1264D01*
X2723Y1264D02*
X2759Y1264D01*
X2832Y1264D02*
X2867Y1264D01*
X125Y1263D02*
X160Y1263D01*
X235Y1263D02*
X270Y1263D01*
X991Y1263D02*
X1026Y1263D01*
X1101Y1263D02*
X1136Y1263D01*
X1857Y1263D02*
X1892Y1263D01*
X1967Y1263D02*
X2002Y1263D01*
X2723Y1263D02*
X2758Y1263D01*
X2832Y1263D02*
X2868Y1263D01*
X124Y1262D02*
X159Y1262D01*
X235Y1262D02*
X270Y1262D01*
X990Y1262D02*
X1025Y1262D01*
X1101Y1262D02*
X1136Y1262D01*
X1856Y1262D02*
X1891Y1262D01*
X1967Y1262D02*
X2002Y1262D01*
X2722Y1262D02*
X2757Y1262D01*
X2833Y1262D02*
X2868Y1262D01*
X124Y1261D02*
X158Y1261D01*
X236Y1261D02*
X271Y1261D01*
X990Y1261D02*
X1024Y1261D01*
X1102Y1261D02*
X1137Y1261D01*
X1856Y1261D02*
X1890Y1261D01*
X1968Y1261D02*
X2003Y1261D01*
X2722Y1261D02*
X2756Y1261D01*
X2834Y1261D02*
X2869Y1261D01*
X124Y1260D02*
X158Y1260D01*
X237Y1260D02*
X271Y1260D01*
X990Y1260D02*
X1024Y1260D01*
X1103Y1260D02*
X1137Y1260D01*
X1856Y1260D02*
X1890Y1260D01*
X1969Y1260D02*
X2003Y1260D01*
X2721Y1260D02*
X2756Y1260D01*
X2835Y1260D02*
X2869Y1260D01*
X123Y1259D02*
X157Y1259D01*
X237Y1259D02*
X271Y1259D01*
X989Y1259D02*
X1023Y1259D01*
X1103Y1259D02*
X1137Y1259D01*
X1855Y1259D02*
X1889Y1259D01*
X1969Y1259D02*
X2003Y1259D01*
X2721Y1259D02*
X2755Y1259D01*
X2835Y1259D02*
X2869Y1259D01*
X123Y1258D02*
X157Y1258D01*
X238Y1258D02*
X272Y1258D01*
X989Y1258D02*
X1023Y1258D01*
X1104Y1258D02*
X1138Y1258D01*
X1855Y1258D02*
X1888Y1258D01*
X1970Y1258D02*
X2004Y1258D01*
X2721Y1258D02*
X2754Y1258D01*
X2836Y1258D02*
X2870Y1258D01*
X123Y1257D02*
X156Y1257D01*
X239Y1257D02*
X272Y1257D01*
X989Y1257D02*
X1022Y1257D01*
X1105Y1257D02*
X1138Y1257D01*
X1854Y1257D02*
X1888Y1257D01*
X1971Y1257D02*
X2004Y1257D01*
X2720Y1257D02*
X2754Y1257D01*
X2837Y1257D02*
X2870Y1257D01*
X122Y1256D02*
X155Y1256D01*
X239Y1256D02*
X272Y1256D01*
X988Y1256D02*
X1021Y1256D01*
X1105Y1256D02*
X1138Y1256D01*
X1854Y1256D02*
X1887Y1256D01*
X1971Y1256D02*
X2004Y1256D01*
X2720Y1256D02*
X2753Y1256D01*
X2837Y1256D02*
X2870Y1256D01*
X122Y1255D02*
X155Y1255D01*
X240Y1255D02*
X273Y1255D01*
X988Y1255D02*
X1021Y1255D01*
X1106Y1255D02*
X1138Y1255D01*
X1854Y1255D02*
X1887Y1255D01*
X1972Y1255D02*
X2004Y1255D01*
X2720Y1255D02*
X2753Y1255D01*
X2838Y1255D02*
X2870Y1255D01*
X122Y1254D02*
X154Y1254D01*
X240Y1254D02*
X273Y1254D01*
X988Y1254D02*
X1020Y1254D01*
X1106Y1254D02*
X1139Y1254D01*
X1854Y1254D02*
X1886Y1254D01*
X1972Y1254D02*
X2005Y1254D01*
X2720Y1254D02*
X2752Y1254D01*
X2838Y1254D02*
X2871Y1254D01*
X122Y1253D02*
X154Y1253D01*
X241Y1253D02*
X273Y1253D01*
X988Y1253D02*
X1020Y1253D01*
X1107Y1253D02*
X1139Y1253D01*
X1853Y1253D02*
X1886Y1253D01*
X1973Y1253D02*
X2005Y1253D01*
X2719Y1253D02*
X2752Y1253D01*
X2838Y1253D02*
X2871Y1253D01*
X121Y1252D02*
X154Y1252D01*
X241Y1252D02*
X273Y1252D01*
X987Y1252D02*
X1020Y1252D01*
X1107Y1252D02*
X1139Y1252D01*
X1853Y1252D02*
X1885Y1252D01*
X1973Y1252D02*
X2005Y1252D01*
X2719Y1252D02*
X2751Y1252D01*
X2839Y1252D02*
X2871Y1252D01*
X121Y1251D02*
X153Y1251D01*
X241Y1251D02*
X274Y1251D01*
X987Y1251D02*
X1019Y1251D01*
X1107Y1251D02*
X1140Y1251D01*
X1853Y1251D02*
X1885Y1251D01*
X1973Y1251D02*
X2005Y1251D01*
X2719Y1251D02*
X2751Y1251D01*
X2839Y1251D02*
X2871Y1251D01*
X121Y1250D02*
X153Y1250D01*
X242Y1250D02*
X274Y1250D01*
X987Y1250D02*
X1019Y1250D01*
X1108Y1250D02*
X1140Y1250D01*
X1853Y1250D02*
X1885Y1250D01*
X1974Y1250D02*
X2006Y1250D01*
X2719Y1250D02*
X2751Y1250D01*
X2840Y1250D02*
X2872Y1250D01*
X121Y1249D02*
X152Y1249D01*
X242Y1249D02*
X274Y1249D01*
X987Y1249D02*
X1018Y1249D01*
X1108Y1249D02*
X1140Y1249D01*
X1853Y1249D02*
X1884Y1249D01*
X1974Y1249D02*
X2006Y1249D01*
X2719Y1249D02*
X2750Y1249D01*
X2840Y1249D02*
X2872Y1249D01*
X120Y1248D02*
X152Y1248D01*
X243Y1248D02*
X274Y1248D01*
X986Y1248D02*
X1018Y1248D01*
X1108Y1248D02*
X1140Y1248D01*
X1852Y1248D02*
X1884Y1248D01*
X1974Y1248D02*
X2006Y1248D01*
X2718Y1248D02*
X2750Y1248D01*
X2840Y1248D02*
X2872Y1248D01*
X120Y1247D02*
X152Y1247D01*
X243Y1247D02*
X274Y1247D01*
X986Y1247D02*
X1018Y1247D01*
X1109Y1247D02*
X1140Y1247D01*
X1852Y1247D02*
X1884Y1247D01*
X1975Y1247D02*
X2006Y1247D01*
X2718Y1247D02*
X2750Y1247D01*
X2841Y1247D02*
X2872Y1247D01*
X120Y1246D02*
X152Y1246D01*
X243Y1246D02*
X274Y1246D01*
X986Y1246D02*
X1017Y1246D01*
X1109Y1246D02*
X1140Y1246D01*
X1852Y1246D02*
X1883Y1246D01*
X1975Y1246D02*
X2006Y1246D01*
X2718Y1246D02*
X2749Y1246D01*
X2841Y1246D02*
X2872Y1246D01*
X120Y1245D02*
X151Y1245D01*
X243Y1245D02*
X275Y1245D01*
X986Y1245D02*
X1017Y1245D01*
X1109Y1245D02*
X1141Y1245D01*
X1852Y1245D02*
X1883Y1245D01*
X1975Y1245D02*
X2007Y1245D01*
X2718Y1245D02*
X2749Y1245D01*
X2841Y1245D02*
X2872Y1245D01*
X120Y1244D02*
X151Y1244D01*
X244Y1244D02*
X275Y1244D01*
X986Y1244D02*
X1017Y1244D01*
X1110Y1244D02*
X1141Y1244D01*
X1852Y1244D02*
X1883Y1244D01*
X1976Y1244D02*
X2007Y1244D01*
X2718Y1244D02*
X2749Y1244D01*
X2841Y1244D02*
X2873Y1244D01*
X120Y1243D02*
X151Y1243D01*
X244Y1243D02*
X275Y1243D01*
X986Y1243D02*
X1017Y1243D01*
X1110Y1243D02*
X1141Y1243D01*
X1852Y1243D02*
X1883Y1243D01*
X1976Y1243D02*
X2007Y1243D01*
X2718Y1243D02*
X2749Y1243D01*
X2842Y1243D02*
X2873Y1243D01*
X120Y1242D02*
X151Y1242D01*
X244Y1242D02*
X275Y1242D01*
X985Y1242D02*
X1017Y1242D01*
X1110Y1242D02*
X1141Y1242D01*
X1851Y1242D02*
X1883Y1242D01*
X1976Y1242D02*
X2007Y1242D01*
X2717Y1242D02*
X2748Y1242D01*
X2842Y1242D02*
X2873Y1242D01*
X119Y1241D02*
X150Y1241D01*
X244Y1241D02*
X275Y1241D01*
X985Y1241D02*
X1016Y1241D01*
X1110Y1241D02*
X1141Y1241D01*
X1851Y1241D02*
X1882Y1241D01*
X1976Y1241D02*
X2007Y1241D01*
X2717Y1241D02*
X2748Y1241D01*
X2842Y1241D02*
X2873Y1241D01*
X119Y1240D02*
X150Y1240D01*
X244Y1240D02*
X275Y1240D01*
X985Y1240D02*
X1016Y1240D01*
X1110Y1240D02*
X1141Y1240D01*
X1851Y1240D02*
X1882Y1240D01*
X1976Y1240D02*
X2007Y1240D01*
X2717Y1240D02*
X2748Y1240D01*
X2842Y1240D02*
X2873Y1240D01*
X119Y1239D02*
X150Y1239D01*
X244Y1239D02*
X275Y1239D01*
X985Y1239D02*
X1016Y1239D01*
X1110Y1239D02*
X1141Y1239D01*
X1851Y1239D02*
X1882Y1239D01*
X1976Y1239D02*
X2007Y1239D01*
X2717Y1239D02*
X2748Y1239D01*
X2842Y1239D02*
X2873Y1239D01*
X119Y1238D02*
X150Y1238D01*
X244Y1238D02*
X275Y1238D01*
X985Y1238D02*
X1016Y1238D01*
X1110Y1238D02*
X1141Y1238D01*
X1851Y1238D02*
X1882Y1238D01*
X1976Y1238D02*
X2007Y1238D01*
X2717Y1238D02*
X2748Y1238D01*
X2842Y1238D02*
X2873Y1238D01*
X119Y1237D02*
X150Y1237D01*
X245Y1237D02*
X275Y1237D01*
X985Y1237D02*
X1016Y1237D01*
X1110Y1237D02*
X1141Y1237D01*
X1851Y1237D02*
X1882Y1237D01*
X1976Y1237D02*
X2007Y1237D01*
X2717Y1237D02*
X2748Y1237D01*
X2842Y1237D02*
X2873Y1237D01*
X119Y1236D02*
X150Y1236D01*
X245Y1236D02*
X275Y1236D01*
X985Y1236D02*
X1016Y1236D01*
X1111Y1236D02*
X1141Y1236D01*
X1851Y1236D02*
X1882Y1236D01*
X1976Y1236D02*
X2007Y1236D01*
X2717Y1236D02*
X2748Y1236D01*
X2842Y1236D02*
X2873Y1236D01*
X119Y1235D02*
X150Y1235D01*
X245Y1235D02*
X275Y1235D01*
X985Y1235D02*
X1016Y1235D01*
X1111Y1235D02*
X1141Y1235D01*
X1851Y1235D02*
X1882Y1235D01*
X1977Y1235D02*
X2007Y1235D01*
X2717Y1235D02*
X2748Y1235D01*
X2842Y1235D02*
X2873Y1235D01*
X119Y1234D02*
X150Y1234D01*
X245Y1234D02*
X276Y1234D01*
X985Y1234D02*
X1016Y1234D01*
X1111Y1234D02*
X1141Y1234D01*
X1851Y1234D02*
X1882Y1234D01*
X1977Y1234D02*
X2007Y1234D01*
X2717Y1234D02*
X2748Y1234D01*
X2843Y1234D02*
X2873Y1234D01*
X119Y1233D02*
X150Y1233D01*
X245Y1233D02*
X276Y1233D01*
X985Y1233D02*
X1016Y1233D01*
X1111Y1233D02*
X1141Y1233D01*
X1851Y1233D02*
X1882Y1233D01*
X1977Y1233D02*
X2007Y1233D01*
X2717Y1233D02*
X2748Y1233D01*
X2842Y1233D02*
X2873Y1233D01*
X119Y1232D02*
X150Y1232D01*
X245Y1232D02*
X275Y1232D01*
X985Y1232D02*
X1016Y1232D01*
X1111Y1232D02*
X1141Y1232D01*
X1851Y1232D02*
X1882Y1232D01*
X1976Y1232D02*
X2007Y1232D01*
X2717Y1232D02*
X2748Y1232D01*
X2842Y1232D02*
X2873Y1232D01*
X119Y1231D02*
X150Y1231D01*
X245Y1231D02*
X275Y1231D01*
X985Y1231D02*
X1016Y1231D01*
X1110Y1231D02*
X1141Y1231D01*
X1851Y1231D02*
X1882Y1231D01*
X1976Y1231D02*
X2007Y1231D01*
X2717Y1231D02*
X2748Y1231D01*
X2842Y1231D02*
X2873Y1231D01*
X119Y1230D02*
X150Y1230D01*
X244Y1230D02*
X275Y1230D01*
X985Y1230D02*
X1016Y1230D01*
X1110Y1230D02*
X1141Y1230D01*
X1851Y1230D02*
X1882Y1230D01*
X1976Y1230D02*
X2007Y1230D01*
X2717Y1230D02*
X2748Y1230D01*
X2842Y1230D02*
X2873Y1230D01*
X119Y1229D02*
X150Y1229D01*
X244Y1229D02*
X275Y1229D01*
X985Y1229D02*
X1016Y1229D01*
X1110Y1229D02*
X1141Y1229D01*
X1851Y1229D02*
X1882Y1229D01*
X1976Y1229D02*
X2007Y1229D01*
X2717Y1229D02*
X2748Y1229D01*
X2842Y1229D02*
X2873Y1229D01*
X119Y1228D02*
X150Y1228D01*
X244Y1228D02*
X275Y1228D01*
X985Y1228D02*
X1016Y1228D01*
X1110Y1228D02*
X1141Y1228D01*
X1851Y1228D02*
X1882Y1228D01*
X1976Y1228D02*
X2007Y1228D01*
X2717Y1228D02*
X2748Y1228D01*
X2842Y1228D02*
X2873Y1228D01*
X119Y1227D02*
X150Y1227D01*
X244Y1227D02*
X275Y1227D01*
X985Y1227D02*
X1016Y1227D01*
X1110Y1227D02*
X1141Y1227D01*
X1851Y1227D02*
X1882Y1227D01*
X1976Y1227D02*
X2007Y1227D01*
X2717Y1227D02*
X2748Y1227D01*
X2842Y1227D02*
X2873Y1227D01*
X120Y1226D02*
X151Y1226D01*
X244Y1226D02*
X275Y1226D01*
X985Y1226D02*
X1017Y1226D01*
X1110Y1226D02*
X1141Y1226D01*
X1851Y1226D02*
X1883Y1226D01*
X1976Y1226D02*
X2007Y1226D01*
X2717Y1226D02*
X2748Y1226D01*
X2842Y1226D02*
X2873Y1226D01*
X120Y1225D02*
X151Y1225D01*
X244Y1225D02*
X275Y1225D01*
X986Y1225D02*
X1017Y1225D01*
X1110Y1225D02*
X1141Y1225D01*
X1852Y1225D02*
X1883Y1225D01*
X1976Y1225D02*
X2007Y1225D01*
X2718Y1225D02*
X2749Y1225D01*
X2842Y1225D02*
X2873Y1225D01*
X120Y1224D02*
X151Y1224D01*
X244Y1224D02*
X275Y1224D01*
X986Y1224D02*
X1017Y1224D01*
X1110Y1224D02*
X1141Y1224D01*
X1852Y1224D02*
X1883Y1224D01*
X1976Y1224D02*
X2007Y1224D01*
X2718Y1224D02*
X2749Y1224D01*
X2842Y1224D02*
X2873Y1224D01*
X120Y1223D02*
X151Y1223D01*
X243Y1223D02*
X275Y1223D01*
X986Y1223D02*
X1017Y1223D01*
X1109Y1223D02*
X1141Y1223D01*
X1852Y1223D02*
X1883Y1223D01*
X1975Y1223D02*
X2007Y1223D01*
X2718Y1223D02*
X2749Y1223D01*
X2841Y1223D02*
X2872Y1223D01*
X120Y1222D02*
X151Y1222D01*
X243Y1222D02*
X274Y1222D01*
X986Y1222D02*
X1017Y1222D01*
X1109Y1222D02*
X1140Y1222D01*
X1852Y1222D02*
X1883Y1222D01*
X1975Y1222D02*
X2006Y1222D01*
X2718Y1222D02*
X2749Y1222D01*
X2841Y1222D02*
X2872Y1222D01*
X120Y1221D02*
X152Y1221D01*
X243Y1221D02*
X274Y1221D01*
X986Y1221D02*
X1018Y1221D01*
X1109Y1221D02*
X1140Y1221D01*
X1852Y1221D02*
X1884Y1221D01*
X1975Y1221D02*
X2006Y1221D01*
X2718Y1221D02*
X2750Y1221D01*
X2841Y1221D02*
X2872Y1221D01*
X120Y1220D02*
X152Y1220D01*
X243Y1220D02*
X274Y1220D01*
X986Y1220D02*
X1018Y1220D01*
X1109Y1220D02*
X1140Y1220D01*
X1852Y1220D02*
X1884Y1220D01*
X1974Y1220D02*
X2006Y1220D01*
X2718Y1220D02*
X2750Y1220D01*
X2840Y1220D02*
X2872Y1220D01*
X121Y1219D02*
X152Y1219D01*
X242Y1219D02*
X274Y1219D01*
X987Y1219D02*
X1018Y1219D01*
X1108Y1219D02*
X1140Y1219D01*
X1853Y1219D02*
X1884Y1219D01*
X1974Y1219D02*
X2006Y1219D01*
X2718Y1219D02*
X2750Y1219D01*
X2840Y1219D02*
X2872Y1219D01*
X121Y1218D02*
X153Y1218D01*
X242Y1218D02*
X274Y1218D01*
X987Y1218D02*
X1019Y1218D01*
X1108Y1218D02*
X1140Y1218D01*
X1853Y1218D02*
X1885Y1218D01*
X1974Y1218D02*
X2006Y1218D01*
X2719Y1218D02*
X2751Y1218D01*
X2840Y1218D02*
X2872Y1218D01*
X121Y1217D02*
X153Y1217D01*
X241Y1217D02*
X274Y1217D01*
X987Y1217D02*
X1019Y1217D01*
X1107Y1217D02*
X1140Y1217D01*
X1853Y1217D02*
X1885Y1217D01*
X1973Y1217D02*
X2005Y1217D01*
X2719Y1217D02*
X2751Y1217D01*
X2839Y1217D02*
X2871Y1217D01*
X121Y1216D02*
X154Y1216D01*
X241Y1216D02*
X273Y1216D01*
X987Y1216D02*
X1019Y1216D01*
X1107Y1216D02*
X1139Y1216D01*
X1853Y1216D02*
X1885Y1216D01*
X1973Y1216D02*
X2005Y1216D01*
X2719Y1216D02*
X2751Y1216D01*
X2839Y1216D02*
X2871Y1216D01*
X122Y1215D02*
X154Y1215D01*
X241Y1215D02*
X273Y1215D01*
X988Y1215D02*
X1020Y1215D01*
X1107Y1215D02*
X1139Y1215D01*
X1853Y1215D02*
X1886Y1215D01*
X1973Y1215D02*
X2005Y1215D01*
X2719Y1215D02*
X2752Y1215D01*
X2838Y1215D02*
X2871Y1215D01*
X122Y1214D02*
X154Y1214D01*
X240Y1214D02*
X273Y1214D01*
X988Y1214D02*
X1020Y1214D01*
X1106Y1214D02*
X1139Y1214D01*
X1854Y1214D02*
X1886Y1214D01*
X1972Y1214D02*
X2005Y1214D01*
X2720Y1214D02*
X2752Y1214D01*
X2838Y1214D02*
X2871Y1214D01*
X122Y1213D02*
X155Y1213D01*
X240Y1213D02*
X273Y1213D01*
X988Y1213D02*
X1021Y1213D01*
X1106Y1213D02*
X1139Y1213D01*
X1854Y1213D02*
X1887Y1213D01*
X1972Y1213D02*
X2004Y1213D01*
X2720Y1213D02*
X2753Y1213D01*
X2838Y1213D02*
X2870Y1213D01*
X122Y1212D02*
X155Y1212D01*
X239Y1212D02*
X272Y1212D01*
X988Y1212D02*
X1021Y1212D01*
X1105Y1212D02*
X1138Y1212D01*
X1854Y1212D02*
X1887Y1212D01*
X1971Y1212D02*
X2004Y1212D01*
X2720Y1212D02*
X2753Y1212D01*
X2837Y1212D02*
X2870Y1212D01*
X123Y1211D02*
X156Y1211D01*
X239Y1211D02*
X272Y1211D01*
X989Y1211D02*
X1022Y1211D01*
X1105Y1211D02*
X1138Y1211D01*
X1854Y1211D02*
X1888Y1211D01*
X1971Y1211D02*
X2004Y1211D01*
X2720Y1211D02*
X2754Y1211D01*
X2837Y1211D02*
X2870Y1211D01*
X123Y1210D02*
X157Y1210D01*
X238Y1210D02*
X272Y1210D01*
X989Y1210D02*
X1022Y1210D01*
X1104Y1210D02*
X1138Y1210D01*
X1855Y1210D02*
X1888Y1210D01*
X1970Y1210D02*
X2004Y1210D01*
X2721Y1210D02*
X2754Y1210D01*
X2836Y1210D02*
X2870Y1210D01*
X123Y1209D02*
X157Y1209D01*
X237Y1209D02*
X271Y1209D01*
X989Y1209D02*
X1023Y1209D01*
X1103Y1209D02*
X1137Y1209D01*
X1855Y1209D02*
X1889Y1209D01*
X1969Y1209D02*
X2003Y1209D01*
X2721Y1209D02*
X2755Y1209D01*
X2835Y1209D02*
X2869Y1209D01*
X124Y1208D02*
X158Y1208D01*
X237Y1208D02*
X271Y1208D01*
X990Y1208D02*
X1024Y1208D01*
X1103Y1208D02*
X1137Y1208D01*
X1855Y1208D02*
X1890Y1208D01*
X1969Y1208D02*
X2003Y1208D01*
X2721Y1208D02*
X2756Y1208D01*
X2835Y1208D02*
X2869Y1208D01*
X124Y1207D02*
X158Y1207D01*
X236Y1207D02*
X271Y1207D01*
X990Y1207D02*
X1024Y1207D01*
X1102Y1207D02*
X1137Y1207D01*
X1856Y1207D02*
X1890Y1207D01*
X1968Y1207D02*
X2003Y1207D01*
X2722Y1207D02*
X2756Y1207D01*
X2834Y1207D02*
X2869Y1207D01*
X124Y1206D02*
X159Y1206D01*
X235Y1206D02*
X270Y1206D01*
X990Y1206D02*
X1025Y1206D01*
X1101Y1206D02*
X1136Y1206D01*
X1856Y1206D02*
X1891Y1206D01*
X1967Y1206D02*
X2002Y1206D01*
X2722Y1206D02*
X2757Y1206D01*
X2833Y1206D02*
X2868Y1206D01*
X125Y1205D02*
X160Y1205D01*
X235Y1205D02*
X270Y1205D01*
X991Y1205D02*
X1026Y1205D01*
X1101Y1205D02*
X1136Y1205D01*
X1857Y1205D02*
X1892Y1205D01*
X1967Y1205D02*
X2002Y1205D01*
X2723Y1205D02*
X2758Y1205D01*
X2833Y1205D02*
X2868Y1205D01*
X125Y1204D02*
X161Y1204D01*
X234Y1204D02*
X270Y1204D01*
X991Y1204D02*
X1027Y1204D01*
X1100Y1204D02*
X1136Y1204D01*
X1857Y1204D02*
X1893Y1204D01*
X1966Y1204D02*
X2001Y1204D01*
X2723Y1204D02*
X2759Y1204D01*
X2832Y1204D02*
X2867Y1204D01*
X125Y1203D02*
X162Y1203D01*
X233Y1203D02*
X269Y1203D01*
X991Y1203D02*
X1028Y1203D01*
X1099Y1203D02*
X1135Y1203D01*
X1857Y1203D02*
X1894Y1203D01*
X1965Y1203D02*
X2001Y1203D01*
X2723Y1203D02*
X2760Y1203D01*
X2831Y1203D02*
X2867Y1203D01*
X126Y1202D02*
X163Y1202D01*
X232Y1202D02*
X269Y1202D01*
X992Y1202D02*
X1029Y1202D01*
X1098Y1202D02*
X1135Y1202D01*
X1858Y1202D02*
X1895Y1202D01*
X1964Y1202D02*
X2001Y1202D01*
X2724Y1202D02*
X2760Y1202D01*
X2830Y1202D02*
X2867Y1202D01*
X126Y1201D02*
X164Y1201D01*
X231Y1201D02*
X268Y1201D01*
X992Y1201D02*
X1029Y1201D01*
X1097Y1201D02*
X1134Y1201D01*
X1858Y1201D02*
X1895Y1201D01*
X1963Y1201D02*
X2000Y1201D01*
X2724Y1201D02*
X2761Y1201D01*
X2829Y1201D02*
X2866Y1201D01*
X127Y1200D02*
X165Y1200D01*
X230Y1200D02*
X268Y1200D01*
X993Y1200D02*
X1031Y1200D01*
X1096Y1200D02*
X1134Y1200D01*
X1859Y1200D02*
X1896Y1200D01*
X1962Y1200D02*
X2000Y1200D01*
X2725Y1200D02*
X2762Y1200D01*
X2828Y1200D02*
X2866Y1200D01*
X127Y1199D02*
X166Y1199D01*
X229Y1199D02*
X267Y1199D01*
X993Y1199D02*
X1032Y1199D01*
X1095Y1199D02*
X1133Y1199D01*
X1859Y1199D02*
X1898Y1199D01*
X1961Y1199D02*
X1999Y1199D01*
X2725Y1199D02*
X2764Y1199D01*
X2827Y1199D02*
X2865Y1199D01*
X128Y1198D02*
X167Y1198D01*
X228Y1198D02*
X267Y1198D01*
X994Y1198D02*
X1033Y1198D01*
X1094Y1198D02*
X1133Y1198D01*
X1860Y1198D02*
X1899Y1198D01*
X1960Y1198D02*
X1999Y1198D01*
X2726Y1198D02*
X2765Y1198D01*
X2826Y1198D02*
X2865Y1198D01*
X128Y1197D02*
X168Y1197D01*
X227Y1197D02*
X266Y1197D01*
X994Y1197D02*
X1034Y1197D01*
X1093Y1197D02*
X1132Y1197D01*
X1860Y1197D02*
X1900Y1197D01*
X1959Y1197D02*
X1998Y1197D01*
X2726Y1197D02*
X2766Y1197D01*
X2824Y1197D02*
X2864Y1197D01*
X129Y1196D02*
X169Y1196D01*
X225Y1196D02*
X266Y1196D01*
X995Y1196D02*
X1035Y1196D01*
X1091Y1196D02*
X1132Y1196D01*
X1861Y1196D02*
X1901Y1196D01*
X1957Y1196D02*
X1998Y1196D01*
X2727Y1196D02*
X2767Y1196D01*
X2823Y1196D02*
X2864Y1196D01*
X130Y1195D02*
X171Y1195D01*
X224Y1195D02*
X265Y1195D01*
X995Y1195D02*
X1037Y1195D01*
X1090Y1195D02*
X1131Y1195D01*
X1861Y1195D02*
X1903Y1195D01*
X1956Y1195D02*
X1997Y1195D01*
X2727Y1195D02*
X2769Y1195D01*
X2822Y1195D02*
X2863Y1195D01*
X130Y1194D02*
X172Y1194D01*
X222Y1194D02*
X264Y1194D01*
X996Y1194D02*
X1038Y1194D01*
X1088Y1194D02*
X1130Y1194D01*
X1862Y1194D02*
X1904Y1194D01*
X1954Y1194D02*
X1996Y1194D01*
X2728Y1194D02*
X2770Y1194D01*
X2820Y1194D02*
X2862Y1194D01*
X131Y1193D02*
X174Y1193D01*
X221Y1193D02*
X264Y1193D01*
X997Y1193D02*
X1040Y1193D01*
X1087Y1193D02*
X1130Y1193D01*
X1863Y1193D02*
X1906Y1193D01*
X1953Y1193D02*
X1996Y1193D01*
X2729Y1193D02*
X2772Y1193D01*
X2818Y1193D02*
X2862Y1193D01*
X131Y1192D02*
X176Y1192D01*
X219Y1192D02*
X263Y1192D01*
X997Y1192D02*
X1042Y1192D01*
X1085Y1192D02*
X1129Y1192D01*
X1863Y1192D02*
X1908Y1192D01*
X1950Y1192D02*
X1995Y1192D01*
X2729Y1192D02*
X2774Y1192D01*
X2816Y1192D02*
X2861Y1192D01*
X132Y1191D02*
X178Y1191D01*
X216Y1191D02*
X263Y1191D01*
X998Y1191D02*
X1044Y1191D01*
X1082Y1191D02*
X1129Y1191D01*
X1864Y1191D02*
X1910Y1191D01*
X1948Y1191D02*
X1995Y1191D01*
X2730Y1191D02*
X2776Y1191D01*
X2814Y1191D02*
X2860Y1191D01*
X133Y1190D02*
X181Y1190D01*
X214Y1190D02*
X262Y1190D01*
X999Y1190D02*
X1047Y1190D01*
X1080Y1190D02*
X1128Y1190D01*
X1865Y1190D02*
X1913Y1190D01*
X1946Y1190D02*
X1994Y1190D01*
X2730Y1190D02*
X2779Y1190D01*
X2812Y1190D02*
X2860Y1190D01*
X133Y1189D02*
X184Y1189D01*
X211Y1189D02*
X261Y1189D01*
X999Y1189D02*
X1050Y1189D01*
X1077Y1189D02*
X1127Y1189D01*
X1865Y1189D02*
X1915Y1189D01*
X1943Y1189D02*
X1993Y1189D01*
X2731Y1189D02*
X2781Y1189D01*
X2809Y1189D02*
X2859Y1189D01*
X134Y1188D02*
X187Y1188D01*
X207Y1188D02*
X261Y1188D01*
X1000Y1188D02*
X1053Y1188D01*
X1073Y1188D02*
X1126Y1188D01*
X1866Y1188D02*
X1919Y1188D01*
X1939Y1188D02*
X1992Y1188D01*
X2732Y1188D02*
X2785Y1188D01*
X2805Y1188D02*
X2858Y1188D01*
X135Y1187D02*
X260Y1187D01*
X1001Y1187D02*
X1126Y1187D01*
X1867Y1187D02*
X1992Y1187D01*
X2733Y1187D02*
X2858Y1187D01*
X136Y1186D02*
X259Y1186D01*
X1002Y1186D02*
X1125Y1186D01*
X1867Y1186D02*
X1991Y1186D01*
X2733Y1186D02*
X2857Y1186D01*
X136Y1185D02*
X258Y1185D01*
X1002Y1185D02*
X1124Y1185D01*
X1868Y1185D02*
X1990Y1185D01*
X2734Y1185D02*
X2856Y1185D01*
X137Y1184D02*
X258Y1184D01*
X1003Y1184D02*
X1124Y1184D01*
X1869Y1184D02*
X1989Y1184D01*
X2735Y1184D02*
X2855Y1184D01*
X138Y1183D02*
X257Y1183D01*
X1004Y1183D02*
X1123Y1183D01*
X1870Y1183D02*
X1989Y1183D01*
X2736Y1183D02*
X2855Y1183D01*
X139Y1182D02*
X256Y1182D01*
X1005Y1182D02*
X1122Y1182D01*
X1871Y1182D02*
X1988Y1182D01*
X2737Y1182D02*
X2854Y1182D01*
X140Y1181D02*
X255Y1181D01*
X1006Y1181D02*
X1121Y1181D01*
X1872Y1181D02*
X1987Y1181D01*
X2738Y1181D02*
X2853Y1181D01*
X141Y1180D02*
X254Y1180D01*
X1007Y1180D02*
X1120Y1180D01*
X1873Y1180D02*
X1986Y1180D01*
X2738Y1180D02*
X2852Y1180D01*
X142Y1179D02*
X253Y1179D01*
X1007Y1179D02*
X1119Y1179D01*
X1873Y1179D02*
X1985Y1179D01*
X2739Y1179D02*
X2851Y1179D01*
X142Y1178D02*
X252Y1178D01*
X1008Y1178D02*
X1118Y1178D01*
X1874Y1178D02*
X1984Y1178D01*
X2740Y1178D02*
X2850Y1178D01*
X144Y1177D02*
X251Y1177D01*
X1010Y1177D02*
X1117Y1177D01*
X1875Y1177D02*
X1983Y1177D01*
X2741Y1177D02*
X2849Y1177D01*
X145Y1176D02*
X250Y1176D01*
X1011Y1176D02*
X1116Y1176D01*
X1877Y1176D02*
X1982Y1176D01*
X2743Y1176D02*
X2848Y1176D01*
X146Y1175D02*
X249Y1175D01*
X1012Y1175D02*
X1115Y1175D01*
X1878Y1175D02*
X1981Y1175D01*
X2744Y1175D02*
X2847Y1175D01*
X147Y1174D02*
X248Y1174D01*
X1013Y1174D02*
X1114Y1174D01*
X1879Y1174D02*
X1980Y1174D01*
X2745Y1174D02*
X2846Y1174D01*
X148Y1173D02*
X246Y1173D01*
X1014Y1173D02*
X1112Y1173D01*
X1880Y1173D02*
X1978Y1173D01*
X2746Y1173D02*
X2844Y1173D01*
X149Y1172D02*
X245Y1172D01*
X1015Y1172D02*
X1111Y1172D01*
X1881Y1172D02*
X1977Y1172D01*
X2747Y1172D02*
X2843Y1172D01*
X151Y1171D02*
X244Y1171D01*
X1017Y1171D02*
X1110Y1171D01*
X1883Y1171D02*
X1976Y1171D01*
X2749Y1171D02*
X2842Y1171D01*
X152Y1170D02*
X242Y1170D01*
X1018Y1170D02*
X1108Y1170D01*
X1884Y1170D02*
X1974Y1170D01*
X2750Y1170D02*
X2840Y1170D01*
X154Y1169D02*
X241Y1169D01*
X1019Y1169D02*
X1107Y1169D01*
X1885Y1169D02*
X1973Y1169D01*
X2751Y1169D02*
X2839Y1169D01*
X155Y1168D02*
X240Y1168D01*
X1021Y1168D02*
X1105Y1168D01*
X1887Y1168D02*
X1971Y1168D01*
X2753Y1168D02*
X2837Y1168D01*
X157Y1167D02*
X238Y1167D01*
X1023Y1167D02*
X1104Y1167D01*
X1889Y1167D02*
X1970Y1167D01*
X2755Y1167D02*
X2836Y1167D01*
X158Y1166D02*
X236Y1166D01*
X1024Y1166D02*
X1102Y1166D01*
X1890Y1166D02*
X1968Y1166D01*
X2756Y1166D02*
X2834Y1166D01*
X160Y1165D02*
X235Y1165D01*
X1026Y1165D02*
X1101Y1165D01*
X1892Y1165D02*
X1967Y1165D01*
X2758Y1165D02*
X2832Y1165D01*
X162Y1164D02*
X233Y1164D01*
X1028Y1164D02*
X1099Y1164D01*
X1894Y1164D02*
X1965Y1164D01*
X2760Y1164D02*
X2831Y1164D01*
X164Y1163D02*
X231Y1163D01*
X1030Y1163D02*
X1097Y1163D01*
X1896Y1163D02*
X1963Y1163D01*
X2762Y1163D02*
X2829Y1163D01*
X166Y1162D02*
X229Y1162D01*
X1032Y1162D02*
X1095Y1162D01*
X1898Y1162D02*
X1960Y1162D01*
X2764Y1162D02*
X2826Y1162D01*
X168Y1161D02*
X226Y1161D01*
X1034Y1161D02*
X1092Y1161D01*
X1900Y1161D02*
X1958Y1161D01*
X2766Y1161D02*
X2824Y1161D01*
X171Y1160D02*
X223Y1160D01*
X1037Y1160D02*
X1089Y1160D01*
X1903Y1160D02*
X1955Y1160D01*
X2769Y1160D02*
X2821Y1160D01*
X174Y1159D02*
X221Y1159D01*
X1040Y1159D02*
X1087Y1159D01*
X1906Y1159D02*
X1953Y1159D01*
X2772Y1159D02*
X2819Y1159D01*
X178Y1158D02*
X217Y1158D01*
X1044Y1158D02*
X1083Y1158D01*
X1910Y1158D02*
X1949Y1158D01*
X2776Y1158D02*
X2815Y1158D01*
X182Y1157D02*
X213Y1157D01*
X1048Y1157D02*
X1079Y1157D01*
X1914Y1157D02*
X1945Y1157D01*
X2780Y1157D02*
X2811Y1157D01*
X188Y1156D02*
X207Y1156D01*
X1054Y1156D02*
X1073Y1156D01*
X1920Y1156D02*
X1939Y1156D01*
X2786Y1156D02*
X2804Y1156D01*
D02*
G04 End of Copper0*
M02*