G04 MADE WITH FRITZING*
G04 WWW.FRITZING.ORG*
G04 DOUBLE SIDED*
G04 HOLES PLATED*
G04 CONTOUR ON CENTER OF CONTOUR VECTOR*
%ASAXBY*%
%FSLAX23Y23*%
%MOIN*%
%OFA0B0*%
%SFA1.0B1.0*%
%ADD10C,0.075000*%
%ADD11C,0.082000*%
%ADD12C,0.086000*%
%ADD13C,0.080000*%
%ADD14R,0.082000X0.082000*%
%ADD15R,0.080000X0.080000*%
%ADD16C,0.024000*%
%LNCOPPER1*%
G90*
G70*
G54D10*
X193Y788D03*
X593Y788D03*
X722Y788D03*
X1122Y788D03*
X1295Y788D03*
X1695Y788D03*
X1846Y788D03*
X2246Y788D03*
G54D11*
X495Y473D03*
X197Y473D03*
X1024Y473D03*
X726Y473D03*
X2149Y488D03*
X1851Y488D03*
X1598Y488D03*
X1300Y488D03*
G54D12*
X945Y1536D03*
X945Y1036D03*
X745Y1158D03*
X394Y1536D03*
X394Y1036D03*
X193Y1158D03*
X1497Y1536D03*
X1497Y1036D03*
X1296Y1158D03*
X2048Y1536D03*
X2048Y1036D03*
X1847Y1158D03*
G54D13*
X1549Y116D03*
X1399Y116D03*
X1249Y116D03*
X1099Y116D03*
X949Y116D03*
G54D14*
X496Y473D03*
X1025Y473D03*
X2150Y488D03*
X1599Y488D03*
G54D15*
X1549Y116D03*
G54D16*
X726Y505D02*
X722Y759D01*
D02*
X1282Y813D02*
X1233Y903D01*
D02*
X1233Y903D02*
X801Y903D01*
D02*
X801Y903D02*
X738Y811D01*
D02*
X1299Y520D02*
X1296Y759D01*
D02*
X1536Y145D02*
X1458Y316D01*
D02*
X1851Y316D02*
X1575Y133D01*
D02*
X1851Y456D02*
X1851Y316D01*
D02*
X193Y817D02*
X196Y947D01*
D02*
X196Y947D02*
X644Y903D01*
D02*
X644Y903D02*
X706Y812D01*
D02*
X197Y505D02*
X193Y759D01*
D02*
X383Y1501D02*
X196Y947D01*
D02*
X909Y1536D02*
X393Y1536D01*
D02*
X1460Y1536D02*
X982Y1536D01*
D02*
X2011Y1536D02*
X1533Y1536D01*
D02*
X1847Y759D02*
X1850Y520D01*
D02*
X393Y1536D02*
X196Y947D01*
D02*
X1458Y316D02*
X1299Y316D01*
D02*
X1299Y316D02*
X1300Y456D01*
G04 End of Copper1*
M02*