; NON-PLATED HOLES START AT T1
; THROUGH (PLATED) HOLES START AT T100
M48
INCH
T1C0.086614
T100C0.042000
T101C0.035000
T102C0.040000
%
T1
X001191Y014888
X035836Y001502
X001584Y001502
X035836Y014888
T100
X012214Y005046
X003329Y005046
X024025Y005046
X006309Y005046
X032687Y005046
X029707Y005046
X015194Y005046
X021045Y005046
T101
X033662Y008046
X020876Y008195
X007284Y008195
X029662Y008046
X003284Y008195
X016169Y008195
X024876Y008195
X012169Y008195
T102
X018588Y001109
X014088Y001109
X015588Y001109
X020088Y001109
X017088Y001109
T00
M30
