G04 MADE WITH FRITZING*
G04 WWW.FRITZING.ORG*
G04 DOUBLE SIDED*
G04 HOLES PLATED*
G04 CONTOUR ON CENTER OF CONTOUR VECTOR*
%ASAXBY*%
%FSLAX23Y23*%
%MOIN*%
%OFA0B0*%
%SFA1.0B1.0*%
%ADD10C,0.075000*%
%ADD11C,0.082000*%
%ADD12C,0.086000*%
%ADD13C,0.080000*%
%ADD14R,0.082000X0.082000*%
%ADD15R,0.080000X0.080000*%
%ADD16C,0.024000*%
%LNCOPPER0*%
G90*
G70*
G54D10*
X193Y788D03*
X593Y788D03*
X722Y788D03*
X1122Y788D03*
X1295Y788D03*
X1695Y788D03*
X1846Y788D03*
X2246Y788D03*
G54D11*
X495Y473D03*
X197Y473D03*
X1024Y473D03*
X726Y473D03*
X2149Y488D03*
X1851Y488D03*
X1598Y488D03*
X1300Y488D03*
G54D12*
X945Y1536D03*
X945Y1036D03*
X745Y1158D03*
X394Y1536D03*
X394Y1036D03*
X193Y1158D03*
X1497Y1536D03*
X1497Y1036D03*
X1296Y1158D03*
X2048Y1536D03*
X2048Y1036D03*
X1847Y1158D03*
G54D13*
X1549Y116D03*
X1399Y116D03*
X1249Y116D03*
X1099Y116D03*
X949Y116D03*
G54D14*
X496Y473D03*
X1025Y473D03*
X2150Y488D03*
X1599Y488D03*
G54D15*
X1549Y116D03*
G54D16*
X1113Y761D02*
X1034Y504D01*
D02*
X967Y1006D02*
X1105Y811D01*
D02*
X417Y1007D02*
X575Y810D01*
D02*
X1608Y519D02*
X1686Y761D01*
D02*
X1520Y1007D02*
X1677Y810D01*
D02*
X1260Y145D02*
X1340Y355D01*
D02*
X1181Y355D02*
X1109Y146D01*
D02*
X1050Y454D02*
X1181Y355D01*
D02*
X924Y136D02*
X521Y453D01*
D02*
X505Y504D02*
X584Y761D01*
D02*
X1589Y353D02*
X1596Y456D01*
D02*
X1429Y37D02*
X2138Y37D01*
D02*
X2138Y37D02*
X2148Y456D01*
D02*
X1410Y87D02*
X1429Y37D01*
D02*
X2238Y761D02*
X2159Y519D01*
D02*
X2071Y1007D02*
X2229Y810D01*
D02*
X1340Y355D02*
X1589Y353D01*
G04 End of Copper0*
M02*