; NON-PLATED HOLES START AT T1
; THROUGH (PLATED) HOLES START AT T100
M48
INCH
T1C0.086614
T100C0.051181
T101C0.040000
T102C0.042000
T103C0.035000
%
T1
X000792Y014572
X023627Y000769
X000792Y000793
X023627Y014572
T100
X001934Y011580
X012957Y011580
X007445Y011580
X018469Y011580
X014965Y015359
X020477Y015359
X003941Y015359
X009453Y015359
X014965Y010359
X020477Y010359
X003941Y010359
X009453Y010359
T101
X010986Y001163
X015486Y001163
X012486Y001163
X013986Y001163
X009486Y001163
T102
X018508Y004879
X012997Y004879
X007261Y004730
X015977Y004879
X001973Y004730
X010241Y004730
X004953Y004730
X021488Y004879
T103
X011216Y007879
X016952Y007879
X005928Y007879
X007216Y007879
X012952Y007879
X022463Y007879
X001928Y007879
X018463Y007879
T00
M30
