; NON-PLATED HOLES START AT T1
; THROUGH (PLATED) HOLES START AT T100
M48
INCH
T1C0.086614
T100C0.042000
T101C0.035000
T102C0.156740
T103C0.040000
%
T1
X036622Y001599
X001178Y001599
X001178Y014985
X037016Y014985
T100
X033866Y005142
X013394Y005142
X016374Y005142
X007488Y005142
X022225Y005142
X004508Y005142
X025205Y005142
X030886Y005142
T101
X030841Y008142
X022055Y008292
X004463Y008292
X017349Y008292
X034841Y008142
X026055Y008292
X013349Y008292
X008463Y008292
T102
X028995Y017555
X020341Y012555
X020341Y017555
X002877Y012555
X002877Y017555
X011676Y012555
X011676Y017555
X028995Y012555
T103
X018315Y001205
X016937Y001205
X019693Y001205
X021071Y001205
X015559Y001205
T00
M30
