G04 MADE WITH FRITZING*
G04 WWW.FRITZING.ORG*
G04 DOUBLE SIDED*
G04 HOLES PLATED*
G04 CONTOUR ON CENTER OF CONTOUR VECTOR*
%ASAXBY*%
%FSLAX23Y23*%
%MOIN*%
%OFA0B0*%
%SFA1.0B1.0*%
%ADD10C,0.210418*%
%ADD11C,0.080000*%
%ADD12C,0.075000*%
%ADD13C,0.082000*%
%ADD14R,0.080000X0.080000*%
%ADD15R,0.082000X0.082000*%
%ADD16C,0.024000*%
%LNCOPPER1*%
G90*
G70*
G54D10*
X1168Y1256D03*
X1168Y1756D03*
X2034Y1256D03*
X2034Y1756D03*
X2900Y1256D03*
X2900Y1756D03*
G54D11*
X2107Y121D03*
X1969Y121D03*
X1832Y121D03*
X1694Y121D03*
X1556Y121D03*
G54D12*
X446Y829D03*
X846Y829D03*
X1335Y829D03*
X1735Y829D03*
X2206Y829D03*
X2606Y829D03*
X3084Y814D03*
X3484Y814D03*
G54D13*
X749Y514D03*
X451Y514D03*
X1637Y514D03*
X1339Y514D03*
X3387Y514D03*
X3089Y514D03*
X2521Y514D03*
X2223Y514D03*
G54D10*
X288Y1256D03*
X288Y1756D03*
G54D14*
X2107Y121D03*
G54D15*
X750Y514D03*
X1638Y514D03*
X3388Y514D03*
X2522Y514D03*
G54D16*
X2971Y1202D02*
X3461Y832D01*
D02*
X2106Y1202D02*
X2583Y846D01*
D02*
X1239Y1202D02*
X1712Y846D01*
D02*
X2480Y631D02*
X2510Y545D01*
D02*
X2166Y631D02*
X2480Y631D01*
D02*
X1144Y514D02*
X781Y514D01*
D02*
X1144Y120D02*
X1144Y514D01*
D02*
X1772Y160D02*
X1772Y514D01*
D02*
X1772Y514D02*
X1670Y514D01*
D02*
X3388Y200D02*
X2049Y200D01*
D02*
X2049Y200D02*
X1991Y143D01*
D02*
X3387Y482D02*
X3388Y200D01*
D02*
X1849Y147D02*
X2166Y631D01*
D02*
X1722Y135D02*
X1772Y160D01*
D02*
X1525Y121D02*
X1144Y120D01*
D02*
X1647Y545D02*
X1726Y802D01*
D02*
X758Y545D02*
X838Y802D01*
D02*
X3397Y545D02*
X3475Y787D01*
D02*
X2595Y794D02*
X2598Y802D01*
D02*
X2529Y545D02*
X2595Y794D01*
D02*
X824Y847D02*
X359Y1201D01*
G04 End of Copper1*
M02*