G04 MADE WITH FRITZING*
G04 WWW.FRITZING.ORG*
G04 DOUBLE SIDED*
G04 HOLES PLATED*
G04 CONTOUR ON CENTER OF CONTOUR VECTOR*
%ASAXBY*%
%FSLAX23Y23*%
%MOIN*%
%OFA0B0*%
%SFA1.0B1.0*%
%ADD10C,0.210418*%
%ADD11C,0.080000*%
%ADD12C,0.075000*%
%ADD13C,0.082000*%
%ADD14R,0.080000X0.080000*%
%ADD15R,0.082000X0.082000*%
%ADD16C,0.024000*%
%LNCOPPER0*%
G90*
G70*
G54D10*
X1168Y1256D03*
X1168Y1756D03*
X2034Y1256D03*
X2034Y1756D03*
X2900Y1256D03*
X2900Y1756D03*
G54D11*
X2107Y121D03*
X1969Y121D03*
X1832Y121D03*
X1694Y121D03*
X1556Y121D03*
G54D12*
X446Y829D03*
X846Y829D03*
X1335Y829D03*
X1735Y829D03*
X2206Y829D03*
X2606Y829D03*
X3084Y814D03*
X3484Y814D03*
G54D13*
X749Y514D03*
X451Y514D03*
X1637Y514D03*
X1339Y514D03*
X3387Y514D03*
X3089Y514D03*
X2521Y514D03*
X2223Y514D03*
G54D10*
X288Y1256D03*
X288Y1756D03*
G54D14*
X2107Y121D03*
G54D15*
X750Y514D03*
X1638Y514D03*
X3388Y514D03*
X2522Y514D03*
G54D16*
X1945Y1756D02*
X1257Y1756D01*
D02*
X2810Y1756D02*
X2124Y1756D01*
D02*
X2214Y483D02*
X2116Y150D01*
D02*
X2993Y320D02*
X3075Y485D01*
D02*
X2323Y320D02*
X2993Y320D01*
D02*
X2237Y486D02*
X2323Y320D01*
D02*
X3085Y786D02*
X3088Y546D01*
D02*
X2207Y801D02*
X2221Y546D01*
D02*
X1339Y546D02*
X1335Y801D01*
D02*
X450Y546D02*
X447Y801D01*
D02*
X2126Y949D02*
X2190Y853D01*
D02*
X1419Y949D02*
X2126Y949D01*
D02*
X1351Y853D02*
X1419Y949D01*
D02*
X551Y950D02*
X1221Y949D01*
D02*
X1221Y949D02*
X1315Y850D01*
D02*
X483Y842D02*
X551Y950D01*
D02*
X474Y838D02*
X483Y842D01*
D02*
X377Y1756D02*
X1078Y1756D01*
D02*
X348Y1689D02*
X592Y1421D01*
D02*
X592Y1421D02*
X453Y857D01*
G04 End of Copper0*
M02*