<?xml version="1.0" encoding="UTF-8" standalone="no"?>
<!-- Created with Fritzing (http://www.fritzing.org/) -->

<svg
   xmlns:dc="http://purl.org/dc/elements/1.1/"
   xmlns:cc="http://creativecommons.org/ns#"
   xmlns:rdf="http://www.w3.org/1999/02/22-rdf-syntax-ns#"
   xmlns:svg="http://www.w3.org/2000/svg"
   xmlns="http://www.w3.org/2000/svg"
   xmlns:sodipodi="http://sodipodi.sourceforge.net/DTD/sodipodi-0.dtd"
   xmlns:inkscape="http://www.inkscape.org/namespaces/inkscape"
   width="18.099998mm"
   x="0in"
   version="1.2"
   y="0in"
   height="10.200001mm"
   viewBox="0 0 712.59841 401.57483"
   id="svg2"
   inkscape:version="0.91 r13725"
   sodipodi:docname="mono-audio-jack_breadboard.svg">
  <metadata
     id="metadata186">
    <rdf:RDF>
      <cc:Work
         rdf:about="">
        <dc:format>image/svg+xml</dc:format>
        <dc:type
           rdf:resource="http://purl.org/dc/dcmitype/StillImage" />
        <dc:title />
      </cc:Work>
    </rdf:RDF>
  </metadata>
  <defs
     id="defs184" />
  <sodipodi:namedview
     pagecolor="#ffffff"
     bordercolor="#666666"
     borderopacity="1"
     objecttolerance="10"
     gridtolerance="10"
     guidetolerance="10"
     inkscape:pageopacity="0"
     inkscape:pageshadow="2"
     inkscape:window-width="1915"
     inkscape:window-height="1038"
     id="namedview182"
     showgrid="true"
     inkscape:zoom="13.111111"
     inkscape:cx="34.097264"
     inkscape:cy="16.154646"
     inkscape:window-x="2"
     inkscape:window-y="0"
     inkscape:window-maximized="0"
     inkscape:current-layer="svg2"
     units="mm"
     fit-margin-top="0"
     fit-margin-left="0"
     fit-margin-right="0"
     fit-margin-bottom="0"
     inkscape:document-units="mm">
    <inkscape:grid
       type="xygrid"
       id="grid4488"
       units="mm"
       originx="240.49202"
       originy="-30.167786"
       spacingx="11.111024" />
  </sodipodi:namedview>
  <desc
     id="desc4">Fritzing breadboard generated by brd2svg</desc>
  <g
     id="breadboard">
    <rect
       transform="scale(-1,-1)"
       y="-401.5748"
       x="-586.61414"
       height="393.70078"
       width="578.74011"
       id="rect3514"
       style="fill:#333333;fill-opacity:1;fill-rule:evenodd;stroke:none;stroke-width:24.10454369px;stroke-linecap:butt;stroke-linejoin:miter;stroke-opacity:1" />
    <g
       transform="matrix(-1,0,0,-1,712.59839,420.67792)"
       id="g4552">
      <rect
         width="125.98426"
         y="132.14101"
         height="167.653"
         id="rect101"
         x="1.9999999e-05"
         style="fill:#a1a1a1" />
      <rect
         width="125.98426"
         y="162.293"
         height="103.167"
         id="rect103"
         x="1.9999999e-05"
         style="fill:#ababab" />
      <rect
         width="125.98426"
         y="201.543"
         height="44.569401"
         id="rect105"
         x="1.9999999e-05"
         style="fill:#c7c7c7" />
      <rect
         width="125.98426"
         y="208.821"
         height="24.4583"
         id="rect107"
         x="1.9999999e-05"
         style="fill:#e6e6e6" />
      <rect
         width="125.98426"
         y="132.36301"
         height="5.5"
         id="rect111"
         x="1.9999999e-05"
         style="fill:#737373" />
      <rect
         width="125.98426"
         y="294.27899"
         height="5.5"
         id="rect109"
         x="1.9999999e-05"
         style="fill:#737373" />
    </g>
    <g
       id="g4876">
      <path
         style="fill:#2b2b2b"
         inkscape:connector-curvature="0"
         id="path41"
         d="m 548.22145,92.75992 0,223.93 -98.7361,0 0,-223.931 98.7361,10e-4 0,0 z m -4.2638,219.666 0,-215.417 -90.25,0 4e-4,215.417 90.2496,0 0,0 z" />
      <path
         style="fill:#3d3d3d"
         inkscape:connector-curvature="0"
         id="path71"
         d="m 456.83305,99.85692 84.0134,0 0,61.1667 c -0.375,4.06944 -3.55556,7.97222 -7.51389,8.93056 l -19.7222,4.72222 c -4.20833,1 -7.65278,5.375 -7.65278,9.70833 l 0,40.6389 c 0,4.33333 3.44444,8.70833 7.65278,9.70833 l 19.7222,4.75 c 3.95833,0.93056 7.13889,4.86111 7.51389,8.94444 l 0,61.15252 -84.0139,0 5e-4,-209.722 m -1.389,-1.375 0,1.38889 0,209.70811 0,1.403 1.38889,0 84.01351,0 1.4028,0 0,-1.403 0,-61.1528 c -0.45833,-4.88889 -4.15278,-9.22222 -8.56944,-10.2778 l -19.7222,-4.75 c -3.58333,-0.86111 -6.625,-4.69444 -6.625,-8.375 l 0,-40.6389 c 0,-3.66667 3.04167,-7.51389 6.625,-8.36111 l 19.7222,-4.72222 c 4.41667,-1.05556 8.11111,-5.43056 8.56944,-10.1389 l 0,-61.3056 0,-1.41667 -1.41667,0 -84.0139,0 -1.38889,0 2.6e-4,0.042 z" />
      <rect
         transform="scale(-1,-1)"
         style="fill:#d6d6d6"
         id="rect65"
         height="44.569401"
         y="-219.13493"
         x="-548.22144"
         width="26.125" />
      <rect
         transform="scale(-1,-1)"
         width="0.055555601"
         x="-534.98505"
         y="-169.2599"
         height="69.388901"
         id="rect53"
         style="fill:#cccccc" />
      <rect
         transform="scale(-1,-1)"
         width="0.055555601"
         x="-534.98505"
         y="-309.57892"
         height="69.402802"
         id="rect55"
         style="fill:#cccccc" />
      <rect
         transform="scale(-1,-1)"
         style="fill:#cccccc"
         id="rect63"
         height="107.347"
         y="-258.38492"
         x="-548.22144"
         width="26.125" />
      <path
         d="m 541.55485,161.06492 c -0.43056,4.5 -3.875,8.59722 -8.02778,9.56944 l -19.7222,4.72222 c -3.93056,0.94444 -7.16667,4.98611 -7.16667,9.02778 l 0,40.6389 c 0,4.04167 3.19444,8.09722 7.16667,9.02778 l 19.7222,4.75 c 4.15278,0.98611 7.59722,5.08333 8.02778,9.54167 l 0,61.23621 -84.7222,0.69444 -0.68056,-210.403 85.3889,-0.68055 -4e-5,61.87511 0.0139,0 z"
         id="path69"
         inkscape:connector-curvature="0"
         style="fill:#cccccc" />
      <polygon
         style="fill:#d9d9d9"
         id="polygon73"
         points="110.083,131.389 110.083,202.514 120.139,204.931 120.139,131.389 "
         transform="matrix(-1,0,0,-1,639.15205,440.96792)" />
      <polygon
         style="fill:#d9d9d9"
         id="polygon75"
         points="120.139,341.111 120.139,267.569 110.083,269.972 110.083,341.111 "
         transform="matrix(-1,0,0,-1,639.15205,440.96792)" />
      <path
         style="fill:#878787"
         inkscape:connector-curvature="0"
         id="path77"
         d="m 533.33305,169.95392 c 0.56944,-0.13889 1.08333,-0.43056 1.59722,-0.68056 l 0,-69.4167 -5.86111,0 0,71.125 4.26389,-1.02774 z" />
      <path
         style="fill:#878787"
         inkscape:connector-curvature="0"
         id="path79"
         d="m 533.33305,239.48192 -4.26389,-1.02778 -1.1e-4,71.12478 5.861,0 0,-69.4028 c -0.514,-0.2502 -1.028,-0.5552 -1.597,-0.6942 z" />
      <path
         style="fill:#525252"
         inkscape:connector-curvature="0"
         id="path81"
         d="m 540.84645,161.06492 0,-61.1944 -5.8614,4e-4 0,69.3889 c 3.153,-1.4999 5.5281,-4.7229 5.8614,-8.1949 z" />
      <path
         style="fill:#525252"
         inkscape:connector-curvature="0"
         id="path83"
         d="m 534.98505,240.20392 0,69.375 5.8614,0 0,-61.1528 c -0.3333,-3.4722 -2.7084,-6.7362 -5.8614,-8.2222 z" />
      <rect
         transform="scale(-1,-1)"
         style="fill:#8f8f8f"
         id="rect85"
         height="209.722"
         y="-309.57892"
         x="-482.49902"
         width="25.6667" />
      <polygon
         transform="matrix(-1,0,0,-1,639.15205,440.96792)"
         points="153.694,341.111 153.694,131.389 159.639,131.389 159.639,341.111 "
         id="polygon89"
         style="fill:#dedede" />
      <rect
         transform="scale(-1,-1)"
         style="fill:#dedede"
         id="rect91"
         height="24.4583"
         y="-211.85692"
         x="-548.22144"
         width="26.125" />
    </g>
    <rect
       transform="scale(1,-1)"
       y="-7.8740153"
       x="86.614174"
       height="7.8740153"
       width="78.740158"
       id="connector2pin"
       style="fill:#8f8f8f;fill-opacity:1;stroke:none" />
    <rect
       style="fill:#8f8f8f;fill-opacity:1;stroke:none"
       id="connector1pin"
       width="78.74015"
       height="7.8740158"
       x="-244.0945"
       y="-7.8740158"
       transform="matrix(0,-1,-1,0,0,0)" />
    <rect
       transform="matrix(0,-1,-1,0,0,0)"
       y="-507.87405"
       x="-244.0945"
       height="7.8740158"
       width="78.74015"
       id="connector0pin"
       style="fill:#8f8f8f;fill-opacity:1;stroke:none" />
  </g>
</svg>
